<?xml version="1.0" encoding="UTF-8"?>
<svg version="1.1" xmlns="http://www.w3.org/2000/svg" width="1024" height="360">
<path d="M0 0 C14.60093155 13.53623427 25.25114649 32.81710661 28.61376953 52.49609375 C29.83064453 52.20734375 31.04751953 51.91859375 32.30126953 51.62109375 C47.94848272 48.187536 61.8813146 48.08894218 77.61376953 50.49609375 C77.61376953 51.15609375 77.61376953 51.81609375 77.61376953 52.49609375 C78.87189453 52.84671875 80.13001953 53.19734375 81.42626953 53.55859375 C96.66530538 58.67027034 106.08404417 69.90952343 113.61376953 83.49609375 C115.2706137 86.85841065 116.61376953 89.67593227 116.61376953 93.49609375 C117.27376953 93.82609375 117.93376953 94.15609375 118.61376953 94.49609375 C119.24658203 97.4375 119.24658203 97.4375 119.73876953 101.05859375 C119.90634766 102.25613281 120.07392578 103.45367187 120.24658203 104.6875 C120.36775391 105.61433594 120.48892578 106.54117188 120.61376953 107.49609375 C117.95228608 108.51229652 115.28672823 109.51085443 112.61376953 110.49609375 C111.82357422 110.79386719 111.03337891 111.09164062 110.21923828 111.3984375 C109.44193359 111.67816406 108.66462891 111.95789063 107.86376953 112.24609375 C107.14705078 112.5090625 106.43033203 112.77203125 105.69189453 113.04296875 C103.0732442 113.61395266 101.97892748 113.84339786 99.61376953 112.49609375 C98.65273873 109.83431128 97.94368707 107.35994354 97.30126953 104.62109375 C94.27099441 93.16353967 88.64023682 82.35865471 78.19580078 76.03125 C64.01535986 68.62996087 48.74062531 68.71929178 33.59423828 73.140625 C28.49411303 74.78718229 23.59871742 76.93135323 18.75195312 79.20922852 C15.84083598 80.57686494 13.8754428 81.49609375 10.61376953 81.49609375 C10.46681641 80.18898438 10.31986328 78.881875 10.16845703 77.53515625 C7.60447508 56.46763893 1.97677888 35.12628587 -13.38623047 19.49609375 C-14.37623047 19.16609375 -15.36623047 18.83609375 -16.38623047 18.49609375 C-17.06685547 17.79484375 -17.74748047 17.09359375 -18.44873047 16.37109375 C-29.92920397 4.54893949 -47.1455947 -1.49838846 -63.38623047 -2.50390625 C-64.20736328 -2.55675781 -65.02849609 -2.60960938 -65.87451172 -2.6640625 C-89.8546993 -3.42691771 -112.53198191 4.53001692 -130.78857422 20.0546875 C-150.109341 38.21330289 -157.45922623 62.34333675 -159.37060547 88.01953125 C-159.57317745 90.49957284 -159.57317745 90.49957284 -158.38623047 92.49609375 C-162.98042373 91.8986166 -167.39071615 91.04141692 -171.88623047 89.93359375 C-185.46794864 87.0067479 -199.25953234 87.33934135 -211.63623047 94.12109375 C-223.12404577 101.6259747 -228.48063511 112.61754502 -231.83935547 125.5859375 C-232.65378767 129.91988026 -232.85159364 134.24583914 -232.97998047 138.6484375 C-233.42807658 141.78941889 -234.28175039 143.17332983 -236.38623047 145.49609375 C-236.38623047 144.83609375 -236.38623047 144.17609375 -236.38623047 143.49609375 C-242.65623047 142.17609375 -248.92623047 140.85609375 -255.38623047 139.49609375 C-254.60436483 122.2950498 -250.13490968 108.69253258 -242.38623047 93.49609375 C-241.72623047 93.49609375 -241.06623047 93.49609375 -240.38623047 93.49609375 C-240.11810547 92.91859375 -239.84998047 92.34109375 -239.57373047 91.74609375 C-238.35693858 89.44059332 -237.08289168 87.47553183 -235.38623047 85.49609375 C-234.72623047 85.49609375 -234.06623047 85.49609375 -233.38623047 85.49609375 C-233.38623047 84.83609375 -233.38623047 84.17609375 -233.38623047 83.49609375 C-222.78316843 74.53989028 -210.11201539 69.11089198 -196.38623047 67.49609375 C-195.51998047 67.31046875 -194.65373047 67.12484375 -193.76123047 66.93359375 C-191.25427128 66.47178548 -188.92961819 66.42342553 -186.38623047 66.49609375 C-186.38623047 67.15609375 -186.38623047 67.81609375 -186.38623047 68.49609375 C-184.40623047 68.16609375 -182.42623047 67.83609375 -180.38623047 67.49609375 C-180.19029297 66.56152344 -179.99435547 65.62695312 -179.79248047 64.6640625 C-174.15328061 39.31220986 -161.31932297 14.58584328 -140.38623047 -1.50390625 C-139.33822266 -2.32375 -139.33822266 -2.32375 -138.26904297 -3.16015625 C-97.84903713 -33.10090132 -38.37569566 -33.81276603 0 0 Z " fill="#47A5F4" transform="translate(532.38623046875,65.50390625)"/>
<path d="M0 0 C0.33 0.66 0.66 1.32 1 2 C3.64 1.34 6.28 0.68 9 0 C9 0.66 9 1.32 9 2 C9.73863281 1.95359375 10.47726562 1.9071875 11.23828125 1.859375 C20.11722375 1.5434787 28.0872529 2.88205848 35.4375 8.1875 C40.81199201 14.0863327 43.39982712 21.82566702 43.28125 29.78515625 C42.3011002 37.5038359 37.60765357 44.07487548 31.6875 48.875 C31.130625 49.24625 30.57375 49.6175 30 50 C31.36125 50.86625 31.36125 50.86625 32.75 51.75 C39.10762095 56.15142989 42.4826769 61.06869991 44.75 68.4375 C45.62164825 77.37189461 44.3907648 84.01924001 40.5 92.125 C33.66487381 99.98539512 26.00432568 102.27154754 16 105 C1.48 105 -13.04 105 -28 105 C-28 71.01 -28 37.02 -28 2 C-4 0.66666667 -4 0.66666667 0 2 C0 1.34 0 0.68 0 0 Z M-8 18 C-8.02886751 22.14581887 -8.04675327 26.29161216 -8.0625 30.4375 C-8.07087891 31.62150391 -8.07925781 32.80550781 -8.08789062 34.02539062 C-8.09111328 35.15009766 -8.09433594 36.27480469 -8.09765625 37.43359375 C-8.10289307 38.47572021 -8.10812988 39.51784668 -8.11352539 40.59155273 C-8.27305556 42.95128747 -8.27305556 42.95128747 -7 44 C1.76842703 44.56869135 11.5428557 45.00175024 19.0625 39.9375 C21.67413426 35.97792548 22.27421445 32.71003641 22 28 C21.19945083 24.34837223 19.91103515 21.71995662 16.9140625 19.3515625 C13.06947065 17.568414 9.6924038 17.4020561 5.5 17.25 C4.38044922 17.18619141 4.38044922 17.18619141 3.23828125 17.12109375 C-0.7202311 16.9319259 -4.1088065 17.13284871 -8 18 Z M-8 59 C-8 69.23 -8 79.46 -8 90 C6.40070402 90.71547891 6.40070402 90.71547891 19.625 85.625 C23.84092914 80.96528884 24.39475321 77.56340224 24.25 71.40234375 C23.78457423 66.92989301 21.81656999 64.79450053 18.6875 61.75 C13.27656277 58.22659901 6.86714403 58.87329444 0.625 58.9375 C-2.22125 58.958125 -5.0675 58.97875 -8 59 Z " fill="#013163" transform="translate(481,196)"/>
<path d="M0 0 C0.495 0.99 0.495 0.99 1 2 C1.33 1.34 1.66 0.68 2 0 C4.31 0 6.62 0 9 0 C9 0.66 9 1.32 9 2 C12.3 2 15.6 2 19 2 C19 35.99 19 69.98 19 105 C13.06 105 7.12 105 1 105 C0.34 103.35 -0.32 101.7 -1 100 C-2.010625 100.78375 -3.02125 101.5675 -4.0625 102.375 C-11.37338714 107.50570211 -19.29900487 107.84636014 -28 107 C-37.02811104 104.62996814 -42.66985011 100.2394835 -47.64453125 92.42578125 C-51.25315907 85.96768939 -52.57745605 79.32409513 -53 72 C-53.05285156 71.30390625 -53.10570312 70.6078125 -53.16015625 69.890625 C-53.66209861 57.93130275 -49.96120744 47.07723258 -42.2890625 37.96875 C-36.03890435 31.74496383 -27.90073543 29.58144319 -19.3125 28.5625 C-11.85929793 29.54688518 -6.17009388 31.66571054 0 36 C-0.08378906 34.74445313 -0.16757812 33.48890625 -0.25390625 32.1953125 C-0.78569437 23.67053621 -1.25238473 15.48838542 0 7 C-0.66 6.67 -1.32 6.34 -2 6 C-1.34 6 -0.68 6 0 6 C0 4.02 0 2.04 0 0 Z M-29.375 52.1875 C-33.59386438 59.48938066 -34.07413865 68.55090248 -32.46484375 76.71484375 C-30.94583931 82.36753242 -29.37407193 86.01312681 -24.17578125 89.07421875 C-19.2525565 91.16901995 -13.69507259 90.51172003 -8.6875 89 C-3.96319968 85.48424162 -1.5118093 81.204717 -0.1875 75.5 C0.18851764 68.48100398 0.47312256 61.70520396 -2 55 C-3.40888062 53.38276848 -3.40888062 53.38276848 -5 52 C-5.70125 51.13375 -6.4025 50.2675 -7.125 49.375 C-14.63807504 43.1685467 -22.80079937 46.13231521 -29.375 52.1875 Z " fill="#46A5F5" transform="translate(415,196)"/>
<path d="M0 0 C1.06541016 0.00902344 2.13082031 0.01804688 3.22851562 0.02734375 C5.84008034 0.05076586 8.45116937 0.08356548 11.0625 0.125 C11.5575 1.115 11.5575 1.115 12.0625 2.125 C14.37030569 3.22019493 14.37030569 3.22019493 17.0625 4.1875 C21.97366173 6.03616173 21.97366173 6.03616173 23.0625 7.125 C22.90596124 13.30226047 21.7100806 19.19370986 20.0625 25.125 C19.4025 25.125 18.7425 25.125 18.0625 25.125 C18.0625 24.465 18.0625 23.805 18.0625 23.125 C5.60484233 19.44145401 -5.3080097 17.25698515 -17.6875 22.8515625 C-25.85193709 27.47240711 -29.08617139 34.42785122 -31.9375 43.125 C-32.84441463 46.63881119 -32.84441463 46.63881119 -32.9375 50.125 C-32.98777344 50.93195313 -33.03804687 51.73890625 -33.08984375 52.5703125 C-33.45316889 62.77248232 -31.6139565 73.08240389 -24.9375 81.125 C-24.2775 81.455 -23.6175 81.785 -22.9375 82.125 C-22.9375 82.785 -22.9375 83.445 -22.9375 84.125 C-21.28211042 84.81919563 -19.61113977 85.47603764 -17.9375 86.125 C-17.27105469 86.38925781 -16.60460937 86.65351563 -15.91796875 86.92578125 C-9.04318712 89.46619968 -3.04023694 89.9462146 4.0625 88.125 C5.980625 87.939375 5.980625 87.939375 7.9375 87.75 C11.79331901 87.31118478 14.6486614 85.99448304 18.0625 84.125 C18.7225 84.125 19.3825 84.125 20.0625 84.125 C20.76255949 86.20414664 21.44712244 88.28851586 22.125 90.375 C22.50785156 91.53515625 22.89070313 92.6953125 23.28515625 93.890625 C24.39489149 98.50801583 24.39489149 98.50801583 23.0625 101.125 C21.3125 102.3203125 21.3125 102.3203125 19.0625 103.25 C18.340625 103.56195313 17.61875 103.87390625 16.875 104.1953125 C1.63466086 109.23309127 -13.9670763 108.7710804 -28.48828125 101.921875 C-33.05229461 99.56143601 -36.50932529 97.00425032 -39.9375 93.125 C-40.49179688 92.57328125 -41.04609375 92.0215625 -41.6171875 91.453125 C-49.23905081 83.53685496 -52.67197542 74.03564636 -52.9375 63.125 C-53.9275 62.795 -54.9175 62.465 -55.9375 62.125 C-55.2775 62.125 -54.6175 62.125 -53.9375 62.125 C-54.03289062 61.05121094 -54.12828125 59.97742188 -54.2265625 58.87109375 C-54.33920143 57.43494743 -54.45114346 55.99874633 -54.5625 54.5625 C-54.62695312 53.85802734 -54.69140625 53.15355469 -54.7578125 52.42773438 C-55.11741833 47.55058034 -54.48980511 43.82757135 -52.9375 39.125 C-52.56799535 36.79712073 -52.22397533 34.46454855 -51.9375 32.125 C-51.2775 32.125 -50.6175 32.125 -49.9375 32.125 C-49.68226562 31.24714844 -49.42703125 30.36929688 -49.1640625 29.46484375 C-45.02265072 18.18806964 -35.98210674 9.86119154 -25.375 4.8125 C-16.66012565 0.91907388 -9.45320124 -0.15256563 0 0 Z " fill="#46A4F2" transform="translate(129.9375,195.875)"/>
<path d="M0 0 C8.40299623 8.02555668 10.24043779 18.53918393 11.21875 29.59375 C11.24853527 33.31690899 10.99645825 34.43944256 9.25 37.5 C2.73552273 37.52529705 -3.77894193 37.54284444 -10.29345703 37.55493164 C-12.51090976 37.55996909 -14.72835916 37.56679922 -16.94580078 37.57543945 C-20.12793805 37.58753072 -23.31003151 37.5932341 -26.4921875 37.59765625 C-27.48805878 37.60281754 -28.48393005 37.60797882 -29.50997925 37.61329651 C-30.89118454 37.61340981 -30.89118454 37.61340981 -32.30029297 37.61352539 C-33.1130368 37.615746 -33.92578064 37.61796661 -34.76315308 37.62025452 C-36.75 37.5 -36.75 37.5 -38.75 36.5 C-36.61555273 44.79006094 -36.61555273 44.79006094 -30.75 50.625 C-23.81924724 54.33403566 -16.05267303 54.5924958 -8.50390625 52.67578125 C-4.0939551 51.22378999 0.1349921 49.65964954 4.25 47.5 C6.78309233 52.14203897 8.71515599 56.15155992 9.25 61.5 C-2.31506403 69.40620528 -13.79232782 71.79399253 -27.75 70.5 C-38.49015628 68.41556177 -45.97830028 64.48330441 -52.5625 55.75 C-59.5709675 44.94927954 -60.53978257 32.50958345 -58.05859375 20.01953125 C-54.87836784 9.52079383 -48.9513408 2.38948299 -39.75 -3.5 C-26.97273899 -9.85371995 -11.4868889 -8.52090883 0 0 Z M-35.1875 13.1875 C-37.4066354 16.18752658 -37.4066354 16.18752658 -38.75 23.5 C-28.85 23.5 -18.95 23.5 -8.75 23.5 C-9.78859685 15.77980642 -9.78859685 15.77980642 -14.75 10.5 C-22.05579136 7.15859155 -28.75794487 8.73626953 -35.1875 13.1875 Z " fill="#013365" transform="translate(932.75,232.5)"/>
<path d="M0 0 C0.886875 0.5775 1.77375 1.155 2.6875 1.75 C10.90144101 9.7419426 13.98951122 19.06890824 14.35205078 30.32763672 C14.48384616 43.16226346 11.79802444 52.2346535 3 62 C-5.74619595 69.61615647 -14.86740932 71.61034743 -26.27734375 71.34765625 C-36.88875103 70.35666438 -44.98569645 65.38476654 -52.25 57.8125 C-59.14382832 49.35957699 -60.80410104 37.57243965 -60 27 C-58.3998486 16.72106137 -54.86283932 7.84504332 -46.6875 1.125 C-32.71395609 -8.79925899 -14.45134897 -10.30883975 0 0 Z M-35 14 C-40.50780896 21.59368711 -41.64012813 29.4676248 -40.4375 38.5625 C-39.312923 43.97262719 -37.13760769 48.27335109 -33 52 C-27.37999816 54.83322407 -20.91166965 55.13402533 -14.87109375 53.3828125 C-9.82305494 50.918759 -7.79105635 47.05825804 -6 42 C-4.10555701 34.42222804 -4.5120185 26.40251285 -7 19 C-7.66 18.34 -8.32 17.68 -9 17 C-9.763125 16.175 -10.52625 15.35 -11.3125 14.5 C-15.15834005 10.92247437 -17.6055782 10.13715624 -22.8125 9.625 C-27.53511673 9.80321195 -31.33489061 10.95357361 -35 14 Z " fill="#F469B7" transform="translate(260,232)"/>
<path d="M0 0 C10.6754424 11.93433891 8.19930607 30.6529962 8.10644531 45.53637695 C8.0736309 53.06539262 8.45048268 60.43349481 9.125 67.9375 C2.855 67.9375 -3.415 67.9375 -9.875 67.9375 C-10.205 65.9575 -10.535 63.9775 -10.875 61.9375 C-11.37128906 62.34742188 -11.86757813 62.75734375 -12.37890625 63.1796875 C-18.96642915 68.40470566 -24.80947292 70.4556483 -33.25390625 70.25 C-39.92493357 69.45464652 -46.21394501 66.78869065 -50.6875 61.6796875 C-55.06016647 55.2645255 -55.38855336 48.67541896 -54.58203125 41.09765625 C-53.21598677 34.99196573 -49.84037182 30.95598997 -45.5625 26.5625 C-35.52040274 20.49053422 -24.24239404 20.76439248 -12.875 20.9375 C-12.70370365 17.41706467 -12.68270387 16.22925965 -14.6875 13.1875 C-18.01887001 9.76094799 -20.91523421 9.75858164 -25.5 9.6875 C-33.21619857 9.75281244 -39.46229007 11.59340618 -45.875 15.9375 C-46.71378455 14.64936658 -47.54586783 13.35686744 -48.375 12.0625 C-48.8390625 11.34320313 -49.303125 10.62390625 -49.78125 9.8828125 C-50.875 7.9375 -50.875 7.9375 -50.875 5.9375 C-51.535 5.6075 -52.195 5.2775 -52.875 4.9375 C-50.73678425 -0.55058709 -45.85561883 -2.44477941 -40.875 -5.0625 C-28.15073122 -10.51575805 -10.57213537 -9.36004342 0 0 Z M-33.75 38.125 C-35.64810934 41.18306505 -35.9574891 44.41796506 -35.875 47.9375 C-35.20833333 50.9375 -35.20833333 50.9375 -32.875 52.9375 C-28.27358644 54.93572342 -24.8847408 55.2354563 -20.0625 53.8125 C-16.44101726 51.68221603 -13.771531 49.730562 -11.875 45.9375 C-11.7794069 44.27305539 -11.74515355 42.60468037 -11.75 40.9375 C-11.74742187 40.050625 -11.74484375 39.16375 -11.7421875 38.25 C-11.72372098 35.91073034 -11.72372098 35.91073034 -12.875 33.9375 C-21.06908127 33.57421561 -26.73656104 33.68315533 -33.75 38.125 Z " fill="#013366" transform="translate(588.875,233.0625)"/>
<path d="M0 0 C6.7801698 6.10359234 8.97005236 13.21982533 9.58837891 22.10107422 C10.00032255 30.01707226 10.01298452 37.93636585 9.94628906 45.86083984 C9.90061531 53.78172291 10.42911745 61.62928704 10.96484375 69.53125 C4.36484375 69.53125 -2.23515625 69.53125 -9.03515625 69.53125 C-9.36515625 67.88125 -9.69515625 66.23125 -10.03515625 64.53125 C-11.04578125 65.315 -12.05640625 66.09875 -13.09765625 66.90625 C-19.5553194 71.46536018 -26.30555421 72.2859513 -34.03515625 71.53125 C-40.66849291 70.19730661 -45.48563878 66.418981 -50.03515625 61.53125 C-53.86802614 55.19868235 -53.46065539 46.86396015 -51.81640625 39.88671875 C-49.43653035 32.71139293 -44.6313176 28.86198494 -38.03515625 25.53125 C-29.38326089 21.9262936 -20.23692066 22.40500628 -11.03515625 22.53125 C-11.53015625 18.07625 -11.53015625 18.07625 -12.03515625 13.53125 C-18.56068043 10.63101703 -26.06571561 10.38163058 -32.89453125 12.359375 C-36.71855082 13.87540643 -40.36491059 15.67944424 -44.03515625 17.53125 C-45.06823396 15.76753182 -46.08627674 13.99499967 -47.09765625 12.21875 C-47.66613281 11.23261719 -48.23460937 10.24648437 -48.8203125 9.23046875 C-50.03515625 6.53125 -50.03515625 6.53125 -49.03515625 3.53125 C-35.80659455 -7.80751717 -14.52222009 -10.48052736 0 0 Z M-31.03515625 39.53125 C-33.71567629 43.55203007 -33.82789156 46.80893428 -33.03515625 51.53125 C-31.30239602 54.33525957 -31.30239602 54.33525957 -28.03515625 55.53125 C-23.43351681 56.18000572 -19.45310972 56.07429601 -15.09765625 54.40625 C-11.72444528 51.33969457 -10.17188683 48.5197882 -9.85546875 43.91796875 C-9.84848072 41.44770011 -9.90354663 38.99771168 -10.03515625 36.53125 C-16.6054433 33.24610648 -25.37133778 35.28693491 -31.03515625 39.53125 Z " fill="#013367" transform="translate(700.03515625,231.46875)"/>
<path d="M0 0 C0.99 0.33 1.98 0.66 3 1 C4.41598611 1.04390655 5.83388723 1.03961155 7.25 1 C11.28834337 0.9471248 15.02231931 1.32294797 19 2 C19.33 3.98 19.66 5.96 20 8 C20.54527344 7.59007812 21.09054687 7.18015625 21.65234375 6.7578125 C28.9421924 1.54899757 35.94210994 -0.93702311 45 0 C52.43118763 2.01283999 58.95679478 4.4606939 63.3984375 11.0859375 C67.14704307 17.78142375 68.1466741 24.45738374 69 32 C69.22406139 33.41748309 69.45204528 34.83436485 69.6875 36.25 C69.790625 37.1575 69.89375 38.065 70 39 C69.67 39.33 69.34 39.66 69 40 C68.91144839 42.6662603 68.88475327 45.30647114 68.90234375 47.97265625 C68.9037587 48.77029892 68.90517365 49.56794159 68.90663147 50.38975525 C68.91224684 52.94737435 68.92480188 55.50490718 68.9375 58.0625 C68.94251302 59.79231645 68.94707627 61.52213426 68.95117188 63.25195312 C68.96137209 67.50136239 68.98094432 71.75058416 69 76 C62.4 76 55.8 76 49 76 C48.95101562 72.76058594 48.90203125 69.52117187 48.8515625 66.18359375 C48.79749278 63.03275081 48.7402088 59.88198148 48.68261719 56.73120117 C48.64442595 54.54798914 48.60955616 52.3647163 48.578125 50.18139648 C48.53226021 47.03607509 48.47430104 43.89116876 48.4140625 40.74609375 C48.40251129 39.7760289 48.39096008 38.80596405 48.37905884 37.8065033 C48.23207428 28.55087086 48.23207428 28.55087086 43.9375 20.625 C38.6201286 17.68347539 34.00462438 17.44133419 28.1875 19.0625 C24.10726879 21.54264054 21.83614556 24.31575936 20.40454102 28.91157532 C19.9698755 31.15551639 19.88679778 33.19220145 19.90234375 35.47729492 C19.90729858 36.79336983 19.90729858 36.79336983 19.91235352 38.1360321 C19.92065186 39.0746962 19.9289502 40.01336029 19.9375 40.98046875 C19.94128662 41.94906326 19.94507324 42.91765778 19.94897461 43.91560364 C19.96118611 47.00628102 19.97982646 50.09686494 20 53.1875 C20.02647491 57.2643202 20.04651451 61.34109549 20.0625 65.41796875 C20.07079834 66.36270554 20.07909668 67.30744232 20.08764648 68.2808075 C20.09260132 69.58269768 20.09260132 69.58269768 20.09765625 70.91088867 C20.10551147 72.06194344 20.10551147 72.06194344 20.11352539 73.23625183 C20 75 20 75 19 76 C17.58672053 76.15620555 16.1664541 76.25056173 14.74609375 76.31640625 C13.89208984 76.35830078 13.03808594 76.40019531 12.15820312 76.44335938 C11.26037109 76.48267578 10.36253906 76.52199219 9.4375 76.5625 C8.53580078 76.60568359 7.63410156 76.64886719 6.70507812 76.69335938 C4.47021515 76.79978142 2.23523692 76.90179988 0 77 C-0.1536773 67.25584144 -0.30185902 57.51161645 -0.4429636 47.76726723 C-0.5086533 43.24291015 -0.57625837 38.71859837 -0.64819336 34.19433594 C-0.71750393 29.83074999 -0.78184517 25.46711684 -0.84269524 21.103405 C-0.86682939 19.43596089 -0.89277474 17.76854202 -0.92053413 16.10115433 C-0.95901565 13.77141517 -0.99114109 11.44167066 -1.02172852 9.11181641 C-1.03467453 8.41770157 -1.04762054 7.72358673 -1.06095886 7.00843811 C-1.11405216 2.22810432 -1.11405216 2.22810432 0 0 Z " fill="#013264" transform="translate(725,225)"/>
<path d="M0 0 C2.86688248 0.09096556 5.70300515 0.23767988 8.5625 0.4375 C9.36880859 0.48970703 10.17511719 0.54191406 11.00585938 0.59570312 C13.00421738 0.72577376 15.00215386 0.86229056 17 1 C17.01981934 2.31081543 17.03963867 3.62163086 17.06005859 4.97216797 C17.13660612 9.87388069 17.22524476 14.77531542 17.31738281 19.67675781 C17.35547072 21.79095946 17.39035734 23.90522145 17.421875 26.01953125 C17.46796713 29.0731349 17.52588528 32.12633019 17.5859375 35.1796875 C17.59748871 36.11239471 17.60903992 37.04510193 17.62094116 38.006073 C17.58377102 49.27253163 17.58377102 49.27253163 22.6875 58.625 C26.42287978 60.175535 28.99294605 60.38529365 33 60 C33.66 59.67 34.32 59.34 35 59 C35.598125 58.9175 36.19625 58.835 36.8125 58.75 C40.2878331 57.55845722 41.74894737 55.90267312 44 53 C47.3606117 44.52091818 46.39801528 33.95997183 46 25 C45.505 24.01 45.505 24.01 45 23 C44.98385116 21.3303193 45.03484222 19.65971714 45.12109375 17.9921875 C45.16943359 17.00605469 45.21777344 16.01992187 45.26757812 15.00390625 C45.32365234 13.97136719 45.37972656 12.93882812 45.4375 11.875 C45.48970703 10.83472656 45.54191406 9.79445312 45.59570312 8.72265625 C45.72560751 6.14818761 45.86217981 3.57405702 46 1 C52.27 1 58.54 1 65 1 C65.73007713 10.80565365 66.14926981 20.49847815 66.1328125 30.3359375 C66.13376923 31.62190826 66.13472595 32.90787903 66.13571167 34.2328186 C66.13716608 36.91661824 66.13510325 39.60038405 66.13037109 42.28417969 C66.12459356 45.72851849 66.1280167 49.17278073 66.13394356 52.61711693 C66.13840344 55.91922665 66.13529503 59.22132679 66.1328125 62.5234375 C66.13483673 63.76177338 66.13686096 65.00010925 66.13894653 66.27597046 C66.13421829 67.97507065 66.13421829 67.97507065 66.12939453 69.70849609 C66.12859894 70.70916107 66.12780334 71.70982605 66.12698364 72.74081421 C66 75 66 75 65 76 C63.58429877 76.08651611 62.164405 76.10704904 60.74609375 76.09765625 C59.89208984 76.09443359 59.03808594 76.09121094 58.15820312 76.08789062 C57.26037109 76.07951172 56.36253906 76.07113281 55.4375 76.0625 C54.53580078 76.05798828 53.63410156 76.05347656 52.70507812 76.04882812 C50.46998686 76.03700225 48.23502563 76.0205222 46 76 C46 74.68 46 73.36 46 72 C45.31292969 72.34933594 44.62585938 72.69867188 43.91796875 73.05859375 C43.01691406 73.51363281 42.11585938 73.96867187 41.1875 74.4375 C40.29417969 74.88996094 39.40085937 75.34242188 38.48046875 75.80859375 C31.57939522 79.12328261 23.41211556 79.0681964 16.03125 77.28125 C11.02345816 75.41086991 7.28892088 73.32258173 4 69 C3.54753906 68.41605469 3.09507812 67.83210938 2.62890625 67.23046875 C-5.85534514 53.89120665 -2.01641363 32.83621482 -1.625 17.6875 C-1.60403259 16.86880432 -1.58306519 16.05010864 -1.5614624 15.206604 C-1.49822115 12.8705459 -1.42677875 10.53491903 -1.3515625 8.19921875 C-1.33164246 7.48669449 -1.31172241 6.77417023 -1.29119873 6.04005432 C-1.11631051 1.11631051 -1.11631051 1.11631051 0 0 Z " fill="#FC6CBD" transform="translate(287,225)"/>
<path d="M0 0 C1.40128674 2.76470087 0.95372346 4.19254763 0.22265625 7.234375 C-0.35162109 8.97460938 -0.35162109 8.97460938 -0.9375 10.75 C-1.50791016 12.50570312 -1.50791016 12.50570312 -2.08984375 14.296875 C-2.39019531 15.18890625 -2.69054687 16.0809375 -3 17 C-3.59167969 16.72285156 -4.18335938 16.44570312 -4.79296875 16.16015625 C-12.50566703 12.62464529 -19.98141432 10.31479601 -28.44140625 12.68359375 C-33.62884869 14.74318786 -36.51110298 16.82309419 -39 22 C-42.0198124 30.57068142 -41.56795061 38.64646485 -38 47 C-34.11705602 51.77900798 -30.40507854 54.08285774 -24.3125 54.75 C-16.97277318 55.35623112 -11.18335007 54.00099122 -5 50 C-4.01 50 -3.02 50 -2 50 C-1.01 54.95 -0.02 59.9 1 65 C-11.53731873 71.61691822 -23.33101926 74.64152579 -37.375 70.375 C-47.11975595 66.66086327 -54.08812137 60.22192978 -59.06640625 51.03125 C-63.89664216 39.64402717 -62.47362181 26.71026998 -58.11328125 15.484375 C-56.70005467 12.33064831 -55.07184182 9.76245576 -53 7 C-52.34 6.01 -51.68 5.02 -51 4 C-37.33697792 -6.95032735 -15.21077423 -10.60249867 0 0 Z " fill="#013366" transform="translate(868,231)"/>
<path d="M0 0 C0.33 0.66 0.66 1.32 1 2 C6.61 2 12.22 2 18 2 C19.13611938 4.27223876 19.12568845 5.50765411 19.12698364 8.03016663 C19.12980347 8.8728862 19.13262329 9.71560577 19.13552856 10.5838623 C19.13350433 11.51017456 19.1314801 12.43648682 19.12939453 13.39086914 C19.13114685 14.36491196 19.13289917 15.33895477 19.13470459 16.34251404 C19.13911852 19.57341271 19.13618694 22.80425699 19.1328125 26.03515625 C19.13348562 28.27192699 19.13445571 30.50869765 19.13571167 32.74546814 C19.13718798 37.43717138 19.13503603 42.12885561 19.13037109 46.82055664 C19.12467057 52.84916984 19.1279553 58.87773856 19.13394356 64.90635014 C19.13754817 69.52583657 19.1364111 74.14531237 19.13381577 78.76479912 C19.13314639 80.98846886 19.13397528 83.21213955 19.13629532 85.43580818 C19.13882057 88.53674015 19.1349832 91.63759891 19.12939453 94.73852539 C19.13141876 95.66686188 19.13344299 96.59519836 19.13552856 97.55166626 C19.11426297 103.88573703 19.11426297 103.88573703 18 105 C16.58429877 105.08651611 15.164405 105.10704904 13.74609375 105.09765625 C12.89208984 105.09443359 12.03808594 105.09121094 11.15820312 105.08789062 C10.26037109 105.07951172 9.36253906 105.07113281 8.4375 105.0625 C7.53580078 105.05798828 6.63410156 105.05347656 5.70507812 105.04882812 C3.46998686 105.03700225 1.23502563 105.0205222 -1 105 C-1.16928239 102.31264212 -1.3354953 99.62515116 -1.5 96.9375 C-1.54769531 96.18533203 -1.59539063 95.43316406 -1.64453125 94.65820312 C-1.92102815 90.0960043 -2 85.57207163 -2 81 C-2.28520405 79.32442621 -2.59955696 77.65182755 -3 76 C-2.34 76 -1.68 76 -1 76 C-1.0721875 75.39414062 -1.144375 74.78828125 -1.21875 74.1640625 C-1.80402578 68.88032278 -2.08018749 63.73698396 -1.9375 58.421875 C-1.93053246 55.95653765 -1.93053246 55.95653765 -2.52734375 53.41796875 C-3.21660173 48.43366518 -2.83026388 43.57548553 -2.5625 38.5625 C-2.08442012 28.72365963 -1.91761548 18.93521296 -2.12524414 9.08618164 C-2.13676514 8.18246826 -2.14828613 7.27875488 -2.16015625 6.34765625 C-2.18541382 5.15668335 -2.18541382 5.15668335 -2.21118164 3.94165039 C-2 2 -2 2 0 0 Z " fill="#013468" transform="translate(614,196)"/>
<path d="M0 0 C6.27 0 12.54 0 19 0 C19 34.32 19 68.64 19 104 C12.73 103.67 6.46 103.34 0 103 C0 69.01 0 35.02 0 0 Z " fill="#47A9F9" transform="translate(168,198)"/>
<path d="M0 0 C6.27 0 12.54 0 19 0 C19 34.32 19 68.64 19 104 C12.73 103.67 6.46 103.34 0 103 C0 69.01 0 35.02 0 0 Z M2 2 C2 34.67 2 67.34 2 101 C7.28 101 12.56 101 18 101 C18 68.33 18 35.66 18 2 C12.72 2 7.44 2 2 2 Z " fill="#3980C4" transform="translate(168,198)"/>
<path d="M0 0 C6.27 0 12.54 0 19 0 C19.73007713 9.80565365 20.14926981 19.49847815 20.1328125 29.3359375 C20.13376923 30.62190826 20.13472595 31.90787903 20.13571167 33.2328186 C20.13716608 35.91661824 20.13510325 38.60038405 20.13037109 41.28417969 C20.12459356 44.72851849 20.1280167 48.17278073 20.13394356 51.61711693 C20.13840344 54.91922665 20.13529503 58.22132679 20.1328125 61.5234375 C20.13483673 62.76177338 20.13686096 64.00010925 20.13894653 65.27597046 C20.13421829 66.97507065 20.13421829 66.97507065 20.12939453 68.70849609 C20.12859894 69.70916107 20.12780334 70.70982605 20.12698364 71.74081421 C20 74 20 74 19 75 C17.58429877 75.08651611 16.164405 75.10704904 14.74609375 75.09765625 C13.89208984 75.09443359 13.03808594 75.09121094 12.15820312 75.08789062 C11.26037109 75.07951172 10.36253906 75.07113281 9.4375 75.0625 C8.53580078 75.05798828 7.63410156 75.05347656 6.70507812 75.04882812 C4.46998686 75.03700225 2.23502563 75.0205222 0 75 C0 73.68 0 72.36 0 71 C-1.485 70.505 -1.485 70.505 -3 70 C-1.625 68 -1.625 68 0 66 C0.66 66 1.32 66 2 66 C2 68.31 2 70.62 2 73 C7.28 73 12.56 73 18 73 C18 49.57 18 26.14 18 2 C12.72 2 7.44 2 2 2 C2.02094727 3.35158203 2.04189453 4.70316406 2.06347656 6.09570312 C2.13615956 11.13498236 2.1819027 16.17421571 2.21972656 21.21386719 C2.23977764 23.39037888 2.26702571 25.56683714 2.30175781 27.74316406 C2.35056212 30.88099393 2.37303438 34.01810835 2.390625 37.15625 C2.41127014 38.12115356 2.43191528 39.08605713 2.45318604 40.0802002 C2.45520511 46.23085001 1.54138602 50.88053767 -2 56 C-7.30276314 61.04409176 -11.9562366 61.4076802 -19.0390625 61.34765625 C-23.58419135 60.81399336 -25.11353503 59.51056551 -28 56 C-28.875 53.1875 -28.875 53.1875 -29 51 C-28.443125 51.763125 -27.88625 52.52625 -27.3125 53.3125 C-24.93939737 56.07043008 -23.31447958 57.53546251 -20 59 C-15.34043098 59.38076718 -15.34043098 59.38076718 -11 58 C-10.401875 57.9175 -9.80375 57.835 -9.1875 57.75 C-5.7121669 56.55845722 -4.25105263 54.90267312 -2 52 C1.3606117 43.52091818 0.39801528 32.95997183 0 24 C-0.33 23.34 -0.66 22.68 -1 22 C-1.01614884 20.3303193 -0.96515778 18.65971714 -0.87890625 16.9921875 C-0.83056641 16.00605469 -0.78222656 15.01992187 -0.73242188 14.00390625 C-0.67634766 12.97136719 -0.62027344 11.93882812 -0.5625 10.875 C-0.51029297 9.83472656 -0.45808594 8.79445312 -0.40429688 7.72265625 C-0.27439249 5.14818761 -0.13782019 2.57405702 0 0 Z " fill="#A44983" transform="translate(333,226)"/>
<path d="M0 0 C7.4288914 1.99469508 13.9636686 4.47094702 18.3984375 11.0859375 C22.14704307 17.78142375 23.1466741 24.45738374 24 32 C24.22406139 33.41748309 24.45204528 34.83436485 24.6875 36.25 C24.8421875 37.61125 24.8421875 37.61125 25 39 C24.67 39.33 24.34 39.66 24 40 C23.91144839 42.6662603 23.88475327 45.30647114 23.90234375 47.97265625 C23.90446617 49.16912025 23.90446617 49.16912025 23.90663147 50.38975525 C23.91224684 52.94737435 23.92480188 55.50490718 23.9375 58.0625 C23.94251302 59.79231645 23.94707627 61.52213426 23.95117188 63.25195312 C23.96137209 67.50136239 23.98094432 71.75058416 24 76 C17.4 76 10.8 76 4 76 C3.95101562 72.76058594 3.90203125 69.52117187 3.8515625 66.18359375 C3.79749278 63.03275081 3.7402088 59.88198148 3.68261719 56.73120117 C3.64442595 54.54798914 3.60955616 52.3647163 3.578125 50.18139648 C3.53226021 47.03607509 3.47430104 43.89116876 3.4140625 40.74609375 C3.40251129 39.7760289 3.39096008 38.80596405 3.37905884 37.8065033 C3.31115578 28.94675538 3.31115578 28.94675538 -0.5078125 21.22265625 C-1.30832031 20.64837891 -1.30832031 20.64837891 -2.125 20.0625 C-3.07375 19.381875 -4.0225 18.70125 -5 18 C-4.01 17.67 -3.02 17.34 -2 17 C2.91700482 21.25254471 5.55746883 25.85845759 6.25765991 32.41137695 C6.34497309 35.08173964 6.33787246 37.73486612 6.29296875 40.40625 C6.28872391 41.3715564 6.28447906 42.33686279 6.28010559 43.3314209 C6.26343097 46.3879083 6.22579992 49.44371485 6.1875 52.5 C6.17243866 54.58332375 6.1587528 56.66665793 6.14648438 58.75 C6.11356424 63.83359215 6.06186016 68.91668099 6 74 C11.28 74 16.56 74 22 74 C21.93069898 67.50752826 21.842529 61.01567468 21.73754883 54.52368164 C21.70447944 52.31932484 21.67639271 50.11488703 21.65356445 47.91040039 C21.61968568 44.72507489 21.5673552 41.54047996 21.51171875 38.35546875 C21.50532883 37.38417526 21.4989389 36.41288177 21.49235535 35.41215515 C21.3016118 26.35258897 19.95750216 17.14900259 14 10 C6.68030006 2.99854789 -0.28335626 2.59746353 -10 2 C-6.43211425 -0.3785905 -4.11402211 -0.60259637 0 0 Z " fill="#081F3B" transform="translate(770,225)"/>
<path d="M0 0 C0.33 0.66 0.66 1.32 1 2 C1.33 1.34 1.66 0.68 2 0 C4.31 0 6.62 0 9 0 C9 0.66 9 1.32 9 2 C12.3 2 15.6 2 19 2 C19 35.99 19 69.98 19 105 C13.06 105 7.12 105 1 105 C1 103.35 1 101.7 1 100 C1.33 100.99 1.66 101.98 2 103 C6.95 103 11.9 103 17 103 C17 70.33 17 37.66 17 4 C11.72 4 6.44 4 1 4 C1 15.22 1 26.44 1 38 C0.34 37.67 -0.32 37.34 -1 37 C-1.02934711 33.50001799 -1.04691445 30.00006821 -1.0625 26.5 C-1.07087891 25.51773438 -1.07925781 24.53546875 -1.08789062 23.5234375 C-1.10659124 17.91325243 -0.838879 12.54849101 0 7 C-0.66 6.67 -1.32 6.34 -2 6 C-1.34 6 -0.68 6 0 6 C0 4.02 0 2.04 0 0 Z " fill="#428AC8" transform="translate(415,196)"/>
<path d="M0 0 C0.33 0 0.66 0 1 0 C1.65886945 7.97702655 2.06975009 15.87117707 2 23.875 C1.92399495 32.62698196 2.40793285 41.26700951 3 50 C-3.6 50 -10.2 50 -17 50 C-17.33 48.35 -17.66 46.7 -18 45 C-19.5159375 46.175625 -19.5159375 46.175625 -21.0625 47.375 C-27.52016315 51.93411018 -34.27039796 52.7547013 -42 52 C-48.63333666 50.66605661 -53.45048253 46.887731 -58 42 C-61.83286989 35.66743235 -61.42549914 27.33271015 -59.78125 20.35546875 C-57.71308645 14.11995564 -53.82168177 10.20393691 -48.203125 6.93359375 C-44.56461273 5.39174192 -40.91989289 5.09981209 -37 5 C-39.71859945 6.81239963 -41.76628479 7.65337779 -44.8125 8.6875 C-51.1438828 11.17383865 -54.42072087 14.76965633 -57.375 20.8125 C-58.80107924 28.08550413 -58.89784807 35.46965006 -55 42 C-51.17901769 46.31507485 -46.67099346 48.73666262 -40.94921875 49.30078125 C-30.89676254 49.33689786 -24.487346 47.92579505 -17 41 C-15 43 -15 43 -15 48 C-10.05 47.67 -5.1 47.34 0 47 C0 31.49 0 15.98 0 0 Z " fill="#061C36" transform="translate(708,251)"/>
<path d="M0 0 C1.15869105 3.62876887 1.03257705 6.96345328 0.9375 10.75 C0.8854639 20.80337391 3.36850615 28.13374071 8.625 36.625 C15.3478427 43.3478427 23.90304104 47.19524753 33.37109375 47.37939453 C34.13550781 47.37794434 34.89992188 47.37649414 35.6875 47.375 C36.87472656 47.3747583 36.87472656 47.3747583 38.0859375 47.37451172 C45.21314576 47.23644386 52.75697147 46.24302853 58 41 C58.02253443 38.55036823 58.02253443 38.55036823 57.625 35.875 C57.51414062 34.96492188 57.40328125 34.05484375 57.2890625 33.1171875 C57.14597656 32.06917969 57.14597656 32.06917969 57 31 C56.27554688 31.28875 55.55109375 31.5775 54.8046875 31.875 C45.20210896 35.56239016 45.20210896 35.56239016 40 35 C40.495 34.01 40.495 34.01 41 33 C42.890625 32.47265625 42.890625 32.47265625 45.25 32.0625 C49.06481985 31.3055913 51.71582624 30.12505361 55 28 C55.99 28 56.98 28 58 28 C58.99 32.95 59.98 37.9 61 43 C48.46268127 49.61691822 36.66898074 52.64152579 22.625 48.375 C12.88024405 44.66086327 5.91187863 38.22192978 0.93359375 29.03125 C-2.63694844 20.61373991 -2.56416813 10.88099903 -1 2 C-0.67 1.34 -0.34 0.68 0 0 Z " fill="#08203C" transform="translate(808,253)"/>
<path d="M0 0 C0.33 0 0.66 0 1 0 C2.21033989 10.78876105 2.14605185 21.54804756 2.1328125 32.38671875 C2.13348716 34.34015413 2.13445854 36.29358944 2.13571167 38.24702454 C2.13717716 42.31402395 2.13506868 46.38100123 2.13037109 50.44799805 C2.12463251 55.67144594 2.12798591 60.8948429 2.13394356 66.11828899 C2.13754471 70.1389861 2.13641338 74.15967096 2.13381577 78.18036842 C2.13314741 80.10818297 2.13397173 82.03599861 2.13629532 83.96381187 C2.138819 86.64216475 2.13498724 89.32043279 2.12939453 91.9987793 C2.13141876 92.79919647 2.13344299 93.59961365 2.13552856 94.42428589 C2.11427146 99.88572854 2.11427146 99.88572854 1 101 C-0.41570123 101.08651611 -1.835595 101.10704904 -3.25390625 101.09765625 C-4.10791016 101.09443359 -4.96191406 101.09121094 -5.84179688 101.08789062 C-6.73962891 101.07951172 -7.63746094 101.07113281 -8.5625 101.0625 C-9.46419922 101.05798828 -10.36589844 101.05347656 -11.29492188 101.04882812 C-13.53001314 101.03700225 -15.76497437 101.0205222 -18 101 C-18.19555932 98.27119539 -18.38170447 95.54228931 -18.5625 92.8125 C-18.64661133 91.65911133 -18.64661133 91.65911133 -18.73242188 90.48242188 C-18.99141557 86.45938647 -19.06573607 82.93927628 -18 79 C-17.67 79 -17.34 79 -17 79 C-17 85.6 -17 92.2 -17 99 C-11.39 99 -5.78 99 0 99 C0 66.33 0 33.66 0 0 Z " fill="#041121" transform="translate(631,200)"/>
<path d="M0 0 C0.33 0.66 0.66 1.32 1 2 C6.28 2 11.56 2 17 2 C17 2.33 17 2.66 17 3 C11.39 3 5.78 3 0 3 C0 29.07 0 55.14 0 82 C-0.66 81.67 -1.32 81.34 -2 81 C-2.625 78.4375 -2.625 78.4375 -3 76 C-2.34 76 -1.68 76 -1 76 C-1.0721875 75.39414062 -1.144375 74.78828125 -1.21875 74.1640625 C-1.80402578 68.88032278 -2.08018749 63.73698396 -1.9375 58.421875 C-1.93053246 55.95653765 -1.93053246 55.95653765 -2.52734375 53.41796875 C-3.21660173 48.43366518 -2.83026388 43.57548553 -2.5625 38.5625 C-2.08442012 28.72365963 -1.91761548 18.93521296 -2.12524414 9.08618164 C-2.13676514 8.18246826 -2.14828613 7.27875488 -2.16015625 6.34765625 C-2.18541382 5.15668335 -2.18541382 5.15668335 -2.21118164 3.94165039 C-2 2 -2 2 0 0 Z " fill="#0C2643" transform="translate(614,196)"/>
<path d="M0 0 C2.26954631 3.40431947 2.36549949 5.16524202 2.625 9.1875 C2.69976563 10.27417969 2.77453125 11.36085937 2.8515625 12.48046875 C2.92503906 13.72763672 2.92503906 13.72763672 3 15 C3.51796143 14.7733667 4.03592285 14.5467334 4.56958008 14.31323242 C23.91341744 5.89176156 41.98689529 -0.84928997 63 6 C72.41644615 10.26329932 82.01507401 18.17922611 86 28 C85.505 29.485 85.505 29.485 85 31 C84.36384766 29.93072266 84.36384766 29.93072266 83.71484375 28.83984375 C76.84430994 17.62048855 70.32146265 11.15887855 57.71484375 6.88671875 C40.97684534 2.89142365 24.28250239 7.59562969 9.13818359 14.71313477 C6.22706645 16.08077119 4.26167327 17 1 17 C0.67 11.39 0.34 5.78 0 0 Z " fill="#3F87C7" transform="translate(542,130)"/>
<path d="M0 0 C6.27 0 12.54 0 19 0 C19 0.33 19 0.66 19 1 C10.585 1.495 10.585 1.495 2 2 C2.02094727 3.35158203 2.04189453 4.70316406 2.06347656 6.09570312 C2.13615956 11.13498236 2.1819027 16.17421571 2.21972656 21.21386719 C2.23977764 23.39037888 2.26702571 25.56683714 2.30175781 27.74316406 C2.35056212 30.88099393 2.37303438 34.01810835 2.390625 37.15625 C2.41127014 38.12115356 2.43191528 39.08605713 2.45318604 40.0802002 C2.45520511 46.23085001 1.54138602 50.88053767 -2 56 C-7.30276314 61.04409176 -11.9562366 61.4076802 -19.0390625 61.34765625 C-23.58419135 60.81399336 -25.11353503 59.51056551 -28 56 C-28.875 53.1875 -28.875 53.1875 -29 51 C-28.443125 51.763125 -27.88625 52.52625 -27.3125 53.3125 C-24.93939737 56.07043008 -23.31447958 57.53546251 -20 59 C-15.34043098 59.38076718 -15.34043098 59.38076718 -11 58 C-10.401875 57.9175 -9.80375 57.835 -9.1875 57.75 C-5.7121669 56.55845722 -4.25105263 54.90267312 -2 52 C1.3606117 43.52091818 0.39801528 32.95997183 0 24 C-0.33 23.34 -0.66 22.68 -1 22 C-1.01614884 20.3303193 -0.96515778 18.65971714 -0.87890625 16.9921875 C-0.83056641 16.00605469 -0.78222656 15.01992187 -0.73242188 14.00390625 C-0.67634766 12.97136719 -0.62027344 11.93882812 -0.5625 10.875 C-0.51029297 9.83472656 -0.45808594 8.79445312 -0.40429688 7.72265625 C-0.27439249 5.14818761 -0.13782019 2.57405702 0 0 Z " fill="#C65D9A" transform="translate(333,226)"/>
<path d="M0 0 C-1.21236328 0.58007812 -1.21236328 0.58007812 -2.44921875 1.171875 C-3.51785156 1.69265625 -4.58648438 2.2134375 -5.6875 2.75 C-6.74324219 3.26046875 -7.79898438 3.7709375 -8.88671875 4.296875 C-16.80654631 8.62942809 -21.12387766 14.55364484 -24.046875 23.0390625 C-27.14108356 34.56936797 -26.93923686 46.73600424 -20.8125 57.375 C-16.52863727 63.47821407 -10.8389471 68.09344748 -4 71 C-7 72 -7 72 -9.05078125 71.25 C-18.04887148 66.27696222 -24.15923856 59.28375038 -27.0859375 49.29296875 C-29.92140585 37.34526125 -28.79878457 24.45986337 -22.71484375 13.734375 C-18.24549373 7.2108669 -8.65138978 -3.20421844 0 0 Z " fill="#061C38" transform="translate(902,228)"/>
<path d="M0 0 C2.86688248 0.09096556 5.70300515 0.23767988 8.5625 0.4375 C9.36880859 0.48970703 10.17511719 0.54191406 11.00585938 0.59570312 C13.00421738 0.72577376 15.00215386 0.86229056 17 1 C17.16848706 6.83477175 17.32894869 12.66969039 17.48217773 18.50488281 C17.5353434 20.48736415 17.59065052 22.46978932 17.64819336 24.45214844 C17.73081934 27.31172579 17.80558411 30.17142075 17.87890625 33.03125 C17.90594131 33.90865845 17.93297638 34.78606689 17.96083069 35.69006348 C18.08575163 40.91326751 17.77685023 45.83146108 17 51 C16.67 51 16.34 51 16 51 C16 35.16 16 19.32 16 3 C10.72 3 5.44 3 0 3 C0.33 22.14 0.66 41.28 1 61 C-2.06923189 57.93076811 -1.52668315 54.26397703 -1.6875 50.125 C-1.7272998 49.19276611 -1.76709961 48.26053223 -1.80810547 47.30004883 C-2.13476095 37.42458155 -1.89302553 27.56113598 -1.625 17.6875 C-1.60376068 16.86952942 -1.58252136 16.05155884 -1.56063843 15.20880127 C-1.49747191 12.8720213 -1.42633567 10.53565338 -1.3515625 8.19921875 C-1.33165756 7.48665421 -1.31175262 6.77408966 -1.29124451 6.03993225 C-1.11623266 1.11623266 -1.11623266 1.11623266 0 0 Z " fill="#AC3F79" transform="translate(287,225)"/>
<path d="M0 0 C-1.7634375 0.7425 -1.7634375 0.7425 -3.5625 1.5 C-8.50458643 3.95345572 -11.83195675 7.52800851 -15 12 C-17.26193573 18.78580718 -16.57150309 26.42267498 -14.04296875 33.05859375 C-11.81034061 37.2144596 -8.56285352 39.21857324 -4.375 41.3125 C3.85542946 42.98906896 11.43202934 42.7151856 19 39 C19.78697266 38.20529297 19.78697266 38.20529297 20.58984375 37.39453125 C22 36 22 36 24 36 C22.78995454 39.63013639 21.96377988 39.87693578 18.6875 41.625 C17.51767578 42.26308594 17.51767578 42.26308594 16.32421875 42.9140625 C10.31822737 45.72022318 3.7315543 45.95751027 -2.6640625 44.31640625 C-9.0550329 41.9897841 -13.73860965 39.10708395 -17.0625 33.0703125 C-19.74016271 26.54350964 -19.52328417 19.80849113 -18 13 C-15.51353189 7.59565763 -12.02094388 3.25682846 -7 0 C-3.86650268 -1.04449911 -3.01031744 -0.93423645 0 0 Z " fill="#081E39" transform="translate(553,258)"/>
<path d="M0 0 C0.33 0.66 0.66 1.32 1 2 C0.32585878 3.84206131 -0.44128479 5.65042531 -1.25 7.4375 C-5.76969897 17.95016997 -7.87086928 28.81073853 -10 40 C-9.38253906 40.04898438 -8.76507813 40.09796875 -8.12890625 40.1484375 C-2.26521841 40.66608422 3.27872775 41.61582123 9 43 C8.9175 41.845 8.835 40.69 8.75 39.5 C8.76731462 28.53984593 12.50016922 17.37676067 18 8 C18.33 8.66 18.66 9.32 19 10 C18.30554915 11.90461204 17.51844514 13.77585447 16.6875 15.625 C13.08408137 24.03963131 11.77848205 30.86971444 11.44140625 40.046875 C10.96418513 43.23961097 10.14583596 44.64244156 8 47 C8 46.34 8 45.68 8 45 C1.73 43.68 -4.54 42.36 -11 41 C-10.31831603 26.00295276 -7.43812409 13.0910984 0 0 Z " fill="#4C89C9" transform="translate(288,164)"/>
<path d="M0 0 C0.83015625 0.01869141 1.6603125 0.03738281 2.515625 0.05664062 C9.26679277 0.358221 15.06167682 1.91126047 19.875 6.875 C21.89369923 12.80492897 21.89062359 18.62500304 19.25 24.3125 C15.68607045 28.06400479 13.07777629 29.68574177 7.8203125 29.98828125 C4.83168222 29.99882936 1.86052749 29.94293567 -1.125 29.8125 C-1.125 29.4825 -1.125 29.1525 -1.125 28.8125 C-0.08859375 28.64234375 0.9478125 28.4721875 2.015625 28.296875 C3.3855647 28.05291314 4.75534859 27.80807521 6.125 27.5625 C6.80691406 27.45292969 7.48882812 27.34335938 8.19140625 27.23046875 C12.60535105 26.41624592 15.20258942 25.47960435 17.875 21.8125 C19.33972519 17.48235612 19.31319502 13.14468252 17.6875 8.875 C15.77461995 5.64289232 15.23603265 5.08049223 11.875 3.8125 C9.36534037 3.44995194 9.36534037 3.44995194 6.671875 3.3984375 C5.6921875 3.35976562 4.7125 3.32109375 3.703125 3.28125 C2.68734375 3.2503125 1.6715625 3.219375 0.625 3.1875 C-0.921875 3.12949219 -0.921875 3.12949219 -2.5 3.0703125 C-5.0414894 2.97618326 -7.58297433 2.89055021 -10.125 2.8125 C-9.95750244 3.36969727 -9.79000488 3.92689453 -9.61743164 4.50097656 C-9.0740141 7.05183291 -9.10329676 9.1947966 -9.24609375 11.796875 C-9.29443359 12.73144531 -9.34277344 13.66601562 -9.39257812 14.62890625 C-9.47668945 16.08103516 -9.47668945 16.08103516 -9.5625 17.5625 C-9.61470703 18.54605469 -9.66691406 19.52960938 -9.72070312 20.54296875 C-9.85011437 22.96648849 -9.98506905 25.38956864 -10.125 27.8125 C-10.455 27.8125 -10.785 27.8125 -11.125 27.8125 C-11.125 18.9025 -11.125 9.9925 -11.125 0.8125 C-7.6594062 -0.9202969 -3.80171783 -0.1694119 0 0 Z " fill="#051931" transform="translate(483.125,211.1875)"/>
<path d="M0 0 C0.33 0.66 0.66 1.32 1 2 C3.64 1.34 6.28 0.68 9 0 C9 0.66 9 1.32 9 2 C9.73863281 1.95359375 10.47726562 1.9071875 11.23828125 1.859375 C20.11722375 1.5434787 28.0872529 2.88205848 35.4375 8.1875 C40.8158543 14.0905718 43.3786721 21.80921161 43.2890625 29.76953125 C42.76338139 33.82580036 41.14830906 37.53683958 39 41 C38.01 41.66 37.02 42.32 36 43 C38 38 38 38 39.125 35.75 C41.37657256 28.67362908 40.11819415 21.62304438 37 15 C33.42473008 9.18067768 28.62883926 6.56217645 22.14453125 4.9296875 C15.94097469 3.58837797 9.75439323 3.78410945 3.4375 3.875 C1.63829102 3.88853516 1.63829102 3.88853516 -0.19726562 3.90234375 C-3.13172309 3.92572588 -6.06575234 3.9584972 -9 4 C-9 3.34 -9 2.68 -9 2 C-3.375 0.875 -3.375 0.875 0 2 C0 1.34 0 0.68 0 0 Z " fill="#092341" transform="translate(481,196)"/>
<path d="M0 0 C0.66 0.66 1.32 1.32 2 2 C1.14277344 2.03738281 0.28554688 2.07476562 -0.59765625 2.11328125 C-9.6968331 2.62012698 -9.6968331 2.62012698 -18 6 C-20.04904183 9.07356275 -20.31626643 9.97598575 -20.375 13.5 C-20.40335938 14.2734375 -20.43171875 15.046875 -20.4609375 15.84375 C-20.17067371 18.13736339 -20.17067371 18.13736339 -18.28515625 19.76171875 C-13.59929467 22.30089502 -8.06689053 21.43060219 -3 20.375 C1.90500656 17.00280799 1.97063143 8.54106911 3 3 C3.33 3 3.66 3 4 3 C4.3221077 9.03653699 4.56806924 13.83245145 1 19 C-3.75861352 23.4017175 -7.48127927 24.30065003 -13.77734375 24.21875 C-16.85372002 23.91597835 -18.65392676 22.9906076 -21 21 C-23.57073939 17.57234748 -23.43037452 14.16028704 -23 10 C-20.66900324 4.83126805 -17.61872172 2.71702855 -12.51953125 0.6875 C-8.38752441 -0.43999334 -4.23425022 -0.68836582 0 0 Z " fill="#041C3B" transform="translate(688,265)"/>
<path d="M0 0 C0.33 0.66 0.66 1.32 1 2 C1.33 1.34 1.66 0.68 2 0 C4.31 0 6.62 0 9 0 C9 0.66 9 1.32 9 2 C11.97 2 14.94 2 18 2 C18 12.89 18 23.78 18 35 C17.67 35 17.34 35 17 35 C17 24.77 17 14.54 17 4 C11.72 4 6.44 4 1 4 C1 15.22 1 26.44 1 38 C0.34 37.67 -0.32 37.34 -1 37 C-1.02934711 33.50001799 -1.04691445 30.00006821 -1.0625 26.5 C-1.07087891 25.51773438 -1.07925781 24.53546875 -1.08789062 23.5234375 C-1.10659124 17.91325243 -0.838879 12.54849101 0 7 C-0.66 6.67 -1.32 6.34 -2 6 C-1.34 6 -0.68 6 0 6 C0 4.02 0 2.04 0 0 Z " fill="#3B81C2" transform="translate(415,196)"/>
<path d="M0 0 C0.33 0 0.66 0 1 0 C1.94079481 7.81195693 2.05098426 15.51705095 2 23.375 C1.94424676 31.99026956 2.22814982 40.41316678 3 49 C-3.27 49 -9.54 49 -16 49 C-16 46.36 -16 43.72 -16 41 C-15.67 41 -15.34 41 -15 41 C-15 42.98 -15 44.96 -15 47 C-10.05 46.67 -5.1 46.34 0 46 C0 30.82 0 15.64 0 0 Z " fill="#061932" transform="translate(595,252)"/>
<path d="M0 0 C2.36557373 2.13300328 3.62967528 3.95949399 4.75 6.9375 C5.14445313 7.94103516 5.14445313 7.94103516 5.546875 8.96484375 C6.1091709 11.49032794 6.11652086 12.64868277 5 15 C-6.0672446 22.50991598 -17.96049874 23.97545224 -31 23 C-34.45703125 21.984375 -34.45703125 21.984375 -37 21 C-37 20.67 -37 20.34 -37 20 C-36.3201001 20.01571045 -35.6402002 20.0314209 -34.93969727 20.04760742 C-31.81405185 20.11055057 -28.68854042 20.14917726 -25.5625 20.1875 C-24.49322266 20.21263672 -23.42394531 20.23777344 -22.32226562 20.26367188 C-13.03899607 20.34883949 -6.15457437 18.39092466 2 14 C1.505 8.555 1.505 8.555 1 3 C-0.65 3.33 -2.3 3.66 -4 4 C-2.68 2.68 -1.36 1.36 0 0 Z " fill="#0A1F37" transform="translate(936,280)"/>
<path d="M0 0 C0.495 0.99 0.495 0.99 1 2 C-0.23234375 1.95359375 -1.4646875 1.9071875 -2.734375 1.859375 C-14.44318744 1.54778766 -25.06570351 1.53821702 -34.5 9.4375 C-39.63811913 14.44822775 -42.98225899 19.531119 -46 26 C-46.67578125 24.31640625 -46.67578125 24.31640625 -47 22 C-45.85546875 19.52734375 -45.85546875 19.52734375 -44.1875 16.9375 C-43.64480469 16.08027344 -43.10210938 15.22304687 -42.54296875 14.33984375 C-37.35556127 6.47337013 -30.50675565 2.30212638 -21.3125 0.0625 C-14.01027884 -1.34609414 -7.3430114 -1.49857376 0 0 Z " fill="#082241" transform="translate(856,226)"/>
<path d="M0 0 C2.52861573 2.26053899 3.83856528 4.39900064 5.1875 7.5 C5.53167969 8.2734375 5.87585938 9.046875 6.23046875 9.84375 C7 12 7 12 7 15 C7.66 15.33 8.32 15.66 9 16 C9.6328125 18.94140625 9.6328125 18.94140625 10.125 22.5625 C10.29257812 23.76003906 10.46015625 24.95757812 10.6328125 26.19140625 C10.75398437 27.11824219 10.87515625 28.04507813 11 29 C8.33851655 30.01620277 5.6729587 31.01476068 3 32 C1.81470703 32.44666016 1.81470703 32.44666016 0.60546875 32.90234375 C-0.17183594 33.18207031 -0.94914063 33.46179688 -1.75 33.75 C-2.82507813 34.14445312 -2.82507813 34.14445312 -3.921875 34.546875 C-6.29387831 35.06407873 -7.71972362 34.76009213 -10 34 C-10.69809445 31.73194205 -11.38371017 29.46133393 -12.0625 27.1875 C-12.26166016 26.54490234 -12.46082031 25.90230469 -12.66601562 25.24023438 C-14.11328125 20.33984375 -14.11328125 20.33984375 -13 17 C-11.35 21.95 -9.7 26.9 -8 32 C-3.09293697 30.97464355 1.36253558 29.90954417 6 28 C6.99 28 7.98 28 9 28 C5.44918677 15.13818661 5.44918677 15.13818661 0 3 C0 2.01 0 1.02 0 0 Z " fill="#3F84C1" transform="translate(642,144)"/>
<path d="M0 0 C3.75811189 2.08630476 5.4955214 3.78722429 7.6875 7.5546875 C8.6875 11.1171875 8.6875 11.1171875 8.6875 17.1171875 C-2.2025 17.1171875 -13.0925 17.1171875 -24.3125 17.1171875 C-24.3125 16.7871875 -24.3125 16.4571875 -24.3125 16.1171875 C-13.7525 16.1171875 -3.1925 16.1171875 7.6875 16.1171875 C7.0275 13.4771875 6.3675 10.8371875 5.6875 8.1171875 C5.0275 7.7871875 4.3675 7.4571875 3.6875 7.1171875 C2.965625 6.2921875 2.24375 5.4671875 1.5 4.6171875 C-1.99202001 1.51316971 -3.66308956 1.1171875 -8.3125 1.1171875 C-13.16642607 2.20131312 -17.5847439 3.71358411 -21.3125 7.1171875 C-20.11741691 3.39915122 -17.84682914 1.66784574 -14.43359375 -0.11328125 C-9.59459133 -1.86886776 -4.80623397 -1.83481229 0 0 Z " fill="#051933" transform="translate(917.3125,240.8828125)"/>
<path d="M0 0 C2.54106009 2.20961747 3.30621489 3.73988358 4 7 C4.74765625 6.65066406 5.4953125 6.30132812 6.265625 5.94140625 C7.25046875 5.48636719 8.2353125 5.03132812 9.25 4.5625 C10.22453125 4.11003906 11.1990625 3.65757812 12.203125 3.19140625 C18.68577722 0.42994127 26.11797059 -0.31632461 32.875 2.0625 C36.72449247 4.44918533 38.5175657 6.74137056 40 11 C40.25 14.4375 40.25 14.4375 40 17 C39.7525 16.484375 39.505 15.96875 39.25 15.4375 C38.8375 14.633125 38.425 13.82875 38 13 C37.56300781 12.13181641 37.56300781 12.13181641 37.1171875 11.24609375 C35.16203541 7.5590156 33.93533903 5.43166112 30 4 C20.42619185 2.93316465 11.99994025 4.58068564 4 10 C0 3.375 0 3.375 0 0 Z " fill="#071D37" transform="translate(539,239)"/>
<path d="M0 0 C0.33 0 0.66 0 1 0 C1.00410889 0.67877197 1.00821777 1.35754395 1.01245117 2.05688477 C1.15545315 15.57343152 1.57609968 27.49630455 7 40 C7.66860691 41.66588926 8.33599659 43.3322705 9 45 C3.75788216 40.88119313 1.58088377 34.53330956 0.52734375 28.125 C0.28762042 25.74802503 0.10155503 23.38654318 0 21 C-0.99 20.67 -1.98 20.34 -3 20 C-2.34 20 -1.68 20 -1 20 C-1.14308594 18.33710938 -1.14308594 18.33710938 -1.2890625 16.640625 C-1.4016391 15.17712917 -1.51358524 13.71358474 -1.625 12.25 C-1.72167969 11.15558594 -1.72167969 11.15558594 -1.8203125 10.0390625 C-2.10381649 6.14088264 -2.27081383 3.29354678 0 0 Z " fill="#3E82C2" transform="translate(77,238)"/>
<path d="M0 0 C1.29731178 3.89193533 0.36981868 4.97774285 -1.25 8.6875 C-5.81873614 20.09664941 -7.92246547 32.71077704 -8 45 C-7.67 45.66 -7.34 46.32 -7 47 C-8.32 47 -9.64 47 -11 47 C-7.71169738 14.57152121 -7.71169738 14.57152121 0 0 Z " fill="#3C86C9" transform="translate(381,111)"/>
<path d="M0 0 C2.33760576 2.33760576 2.34295127 2.93258983 2.4375 6.125 C2.309598 11.41161614 0.52116969 15.09269682 -3 19 C-8.20148933 22.29073814 -12.67883151 23.13477582 -18.75 23.0625 C-19.73484375 23.05347656 -20.7196875 23.04445313 -21.734375 23.03515625 C-22.48203125 23.02355469 -23.2296875 23.01195312 -24 23 C-20.7110593 21.09131019 -17.81604496 20.5888681 -14.0625 20.125 C-9.33000482 19.38716884 -6.2814147 18.71893666 -3 15 C-1.03532866 11.76825801 -0.64276787 8.99875025 -0.375 5.25 C-0.30023438 4.26515625 -0.22546875 3.2803125 -0.1484375 2.265625 C-0.09945313 1.51796875 -0.05046875 0.7703125 0 0 Z " fill="#051D3A" transform="translate(505,264)"/>
<path d="M0 0 C2.96865509 2.54456151 4.3619751 5.48994665 6 9 C6.49628906 8.73445312 6.99257813 8.46890625 7.50390625 8.1953125 C15.73894133 3.91371931 23.29102092 1.36886312 32.5 4 C33.325 4.33 34.15 4.66 35 5 C31.67293362 6.0328097 28.83876917 5.9815758 25.375 5.8125 C17.57043641 5.72663072 11.82048828 8.55875364 5 12 C4.15885829 10.56705502 3.32734313 9.12845595 2.5 7.6875 C1.80390625 6.48673828 1.80390625 6.48673828 1.09375 5.26171875 C0 3 0 3 0 0 Z " fill="#061D38" transform="translate(651,237)"/>
<path d="M0 0 C2.54645219 1.2732261 2.62650982 2.22483617 3.6875 4.8125 C5.93295186 9.5052421 8.29331147 10.89879976 13 13 C16.5358931 14.10688828 20.06504372 14.30455306 23.75 14.5625 C24.92046875 14.64628906 26.0909375 14.73007812 27.296875 14.81640625 C28.18890625 14.87699219 29.0809375 14.93757813 30 15 C27.5500632 17.4499368 26.8095533 17.29666876 23.4375 17.3125 C15.45681059 17.11700761 9.25428646 15.03539339 3.375 9.55078125 C0.68734275 6.51953146 0 3.97691746 0 0 Z " fill="#061E3B" transform="translate(893,272)"/>
<path d="M0 0 C0.33 0.33 0.66 0.66 1 1 C2.51469448 1.23192865 4.03754562 1.41215238 5.5625 1.5625 C6.38878906 1.64628906 7.21507812 1.73007813 8.06640625 1.81640625 C8.70449219 1.87699219 9.34257812 1.93757812 10 2 C10 2.33 10 2.66 10 3 C3.73 3 -2.54 3 -9 3 C-8.67 4.32 -8.34 5.64 -8 7 C-7.98483935 8.66187943 -8.03002628 10.32492334 -8.12109375 11.984375 C-8.16943359 12.91894531 -8.21777344 13.85351562 -8.26757812 14.81640625 C-8.35168945 16.26853516 -8.35168945 16.26853516 -8.4375 17.75 C-8.48970703 18.73355469 -8.54191406 19.71710938 -8.59570312 20.73046875 C-8.72511437 23.15398849 -8.86006905 25.57706864 -9 28 C-9.33 28 -9.66 28 -10 28 C-10 19.09 -10 10.18 -10 1 C-6.74696956 -0.62651522 -3.60774398 -0.11453156 0 0 Z " fill="#08213E" transform="translate(482,211)"/>
<path d="M0 0 C0.66 0 1.32 0 2 0 C2 2.31 2 4.62 2 7 C7.28 7 12.56 7 18 7 C18.33 6.01 18.66 5.02 19 4 C19.5625 5.9375 19.5625 5.9375 20 8 C19 9 19 9 17.14233398 9.11352539 C16.35157471 9.10828857 15.56081543 9.10305176 14.74609375 9.09765625 C13.89208984 9.09443359 13.03808594 9.09121094 12.15820312 9.08789062 C11.26037109 9.07951172 10.36253906 9.07113281 9.4375 9.0625 C8.53580078 9.05798828 7.63410156 9.05347656 6.70507812 9.04882812 C4.46998686 9.03700225 2.23502563 9.0205222 0 9 C0 7.68 0 6.36 0 5 C-0.99 4.67 -1.98 4.34 -3 4 C-1.625 2 -1.625 2 0 0 Z " fill="#B75A94" transform="translate(333,292)"/>
<path d="M0 0 C2.73902249 2.36551942 3.93170092 4.54857221 5 8 C5.1875 10.75 5.1875 10.75 5 13 C4.67 13.33 4.34 13.66 4 14 C1.13311752 13.90903444 -1.70300515 13.76232012 -4.5625 13.5625 C-5.36880859 13.51029297 -6.17511719 13.45808594 -7.00585938 13.40429688 C-9.00421738 13.27422624 -11.00215386 13.13770944 -13 13 C-11 11 -11 11 -7.9609375 10.8046875 C-6.18589844 10.83949219 -6.18589844 10.83949219 -4.375 10.875 C-2.59222656 10.90207031 -2.59222656 10.90207031 -0.7734375 10.9296875 C0.14179687 10.95289063 1.05703125 10.97609375 2 11 C1.25640327 5.44946714 1.25640327 5.44946714 0 0 Z " fill="#05254A" transform="translate(687,243)"/>
<path d="M0 0 C-3.2922434 1.76170894 -6.66704561 2.95513066 -10.1875 4.1875 C-16.43617239 6.55357033 -20.99158983 9.66006347 -26 14 C-27.32582539 15.00993308 -28.65703842 16.0129681 -30 17 C-26.27539666 8.59670774 -18.20077908 4.79546926 -10.24609375 1.06640625 C-6.65923119 -0.11194932 -3.75121462 -0.19394678 0 0 Z " fill="#4187C4" transform="translate(118,198)"/>
<path d="M0 0 C7.115727 0.97032641 7.115727 0.97032641 10 3 C11.70270639 6.87228388 10.33620613 9.89028444 9.0625 13.75 C8.68222656 14.92046875 8.30195312 16.0909375 7.91015625 17.296875 C7.60980469 18.18890625 7.30945313 19.0809375 7 20 C5.35 19.01 3.7 18.02 2 17 C3.32 16.67 4.64 16.34 6 16 C6.66 12.04 7.32 8.08 8 4 C7.05125 3.71125 6.1025 3.4225 5.125 3.125 C2 2 2 2 0 0 Z " fill="#09223F" transform="translate(858,228)"/>
<path d="M0 0 C6.27 0 12.54 0 19 0 C19 0.33 19 0.66 19 1 C10.585 1.495 10.585 1.495 2 2 C2 8.93 2 15.86 2 23 C1.67 23 1.34 23 1 23 C0.67 15.41 0.34 7.82 0 0 Z " fill="#B2609A" transform="translate(333,226)"/>
<path d="M0 0 C5.45767955 0.13644199 8.33262904 2.38687351 12.1640625 5.96875 C15.87067288 10.06968063 17.85555364 13.97775094 18.25 19.5 C18.1675 20.325 18.085 21.15 18 22 C16.92206832 19.90214194 15.92420112 17.81552561 15.02734375 15.6328125 C12.39594979 9.57777693 9.71131807 6.46503095 3.98828125 3.15625 C2 2 2 2 0 0 Z " fill="#051C39" transform="translate(577,228)"/>
<path d="M0 0 C5.61 0.33 11.22 0.66 17 1 C17 3.64 17 6.28 17 9 C16.67 9 16.34 9 16 9 C16 7.02 16 5.04 16 3 C10.39 3 4.78 3 -1 3 C-0.67 2.01 -0.34 1.02 0 0 Z " fill="#AC629D" transform="translate(287,225)"/>
<path d="M0 0 C3.92683468 0.27396521 5.72768614 0.77609749 8.8125 3.3125 C10.87933058 5.851749 11.39230352 6.93538011 12 10 C11.49210937 9.57847656 10.98421875 9.15695312 10.4609375 8.72265625 C6.36302174 5.46120644 3.42011235 3.27100562 -2 3 C-1.34 2.01 -0.68 1.02 0 0 Z " fill="#052951" transform="translate(493,253)"/>
<path d="M0 0 C9.76827372 -0.46189736 9.76827372 -0.46189736 14 1.125 C17.53478153 4.43885768 18.91962625 7.55327243 19.1875 12.375 C19.0946875 13.674375 19.0946875 13.674375 19 15 C18.7525 14.484375 18.505 13.96875 18.25 13.4375 C17.8375 12.633125 17.425 11.82875 17 11 C16.56300781 10.13181641 16.56300781 10.13181641 16.1171875 9.24609375 C14.15677625 5.54909774 12.90816997 3.49554519 9 2 C6.64435404 1.55188863 6.64435404 1.55188863 4.25 1.375 C3.45078125 1.30023438 2.6515625 1.22546875 1.828125 1.1484375 C1.22484375 1.09945312 0.6215625 1.05046875 0 1 C0 0.67 0 0.34 0 0 Z " fill="#072446" transform="translate(560,241)"/>
<path d="M0 0 C3.14051252 1.40276226 5.36749893 3.09615863 7.875 5.4375 C11.10595643 8.3417305 14.01379281 10.30586194 18 12 C15 13 15 13 12.94921875 12.25 C7.56372028 9.27355871 3.50456753 6.11254558 0 1 C0 0.67 0 0.34 0 0 Z " fill="#09223F" transform="translate(880,287)"/>
<path d="M0 0 C0.33 0 0.66 0 1 0 C1.02710123 2.5625718 1.04688771 5.12485365 1.0625 7.6875 C1.07087891 8.40873047 1.07925781 9.12996094 1.08789062 9.87304688 C1.10543632 13.71555382 0.93524221 17.26639526 0 21 C-0.99 20.67 -1.98 20.34 -3 20 C-2.34 20 -1.68 20 -1 20 C-1.14308594 18.33710938 -1.14308594 18.33710938 -1.2890625 16.640625 C-1.4016391 15.17712917 -1.51358524 13.71358474 -1.625 12.25 C-1.72167969 11.15558594 -1.72167969 11.15558594 -1.8203125 10.0390625 C-2.10381649 6.14088264 -2.27081383 3.29354678 0 0 Z " fill="#4790CE" transform="translate(77,238)"/>
<path d="M0 0 C0.33 0 0.66 0 1 0 C1.62460568 9.75078864 1.62460568 9.75078864 -0.75 14.5 C-4.43312102 18.59235669 -4.43312102 18.59235669 -7 20 C-7.99 19.67 -8.98 19.34 -10 19 C-9.071875 18.46375 -8.14375 17.9275 -7.1875 17.375 C-3.08282186 14.31661237 -1.44797756 11.68347341 -0.6015625 6.61328125 C-0.34548479 4.40893661 -0.14269973 2.21430616 0 0 Z " fill="#041A35" transform="translate(578,268)"/>
<path d="M0 0 C3.85045216 0.55006459 5.59599127 1.97560192 8 5 C10.09497465 9.26126759 11.45057322 13.19388563 11 18 C8.65781207 15.65781207 8.49286847 14.36373891 7.75 11.1875 C6.2913359 5.95747121 4.40878897 4.03716574 0 1 C0 0.67 0 0.34 0 0 Z " fill="#061B34" transform="translate(765,242)"/>
<path d="M0 0 C0.33 0 0.66 0 1 0 C1.42317708 1.98567708 1.84635417 3.97135417 2.26953125 5.95703125 C3.13792264 8.38574085 3.95262674 9.43655133 6 11 C8.26393971 11.78356902 8.26393971 11.78356902 10.6875 12.1875 C11.49574219 12.34605469 12.30398438 12.50460937 13.13671875 12.66796875 C14.05904297 12.83232422 14.05904297 12.83232422 15 13 C15 13.33 15 13.66 15 14 C9.62343913 14.27338445 6.43300242 14.38994303 2 11 C0 9 0 9 -0.1953125 6.8359375 C-0.17210937 6.02382813 -0.14890625 5.21171875 -0.125 4.375 C-0.10695313 3.55773437 -0.08890625 2.74046875 -0.0703125 1.8984375 C-0.04710937 1.27195312 -0.02390625 0.64546875 0 0 Z " fill="#051B36" transform="translate(552,275)"/>
<path d="M0 0 C0.56203125 0.22558594 1.1240625 0.45117188 1.703125 0.68359375 C1.17203125 0.9259375 0.6409375 1.16828125 0.09375 1.41796875 C-4.11063651 3.41275067 -7.04124637 5.30738628 -10.296875 8.68359375 C-11.286875 8.68359375 -12.276875 8.68359375 -13.296875 8.68359375 C-13.296875 6.37359375 -13.296875 4.06359375 -13.296875 1.68359375 C-12.636875 3.00359375 -11.976875 4.32359375 -11.296875 5.68359375 C-10.69359375 5.23886719 -10.0903125 4.79414063 -9.46875 4.3359375 C-8.66953125 3.77003906 -7.8703125 3.20414063 -7.046875 2.62109375 C-6.25796875 2.05261719 -5.4690625 1.48414063 -4.65625 0.8984375 C-2.296875 -0.31640625 -2.296875 -0.31640625 0 0 Z " fill="#051E3D" transform="translate(756.296875,227.31640625)"/>
<path d="M0 0 C-0.33 0.66 -0.66 1.32 -1 2 C-3.45862401 2.05383848 -5.9160755 2.09359038 -8.375 2.125 C-9.42300781 2.15013672 -9.42300781 2.15013672 -10.4921875 2.17578125 C-12.32897486 2.19344267 -14.16601963 2.10303261 -16 2 C-16.66 1.34 -17.32 0.68 -18 0 C-11.74692761 -0.83288874 -6.23182639 -1.03863773 0 0 Z " fill="#042246" transform="translate(471,198)"/>
<path d="M0 0 C0.33 0 0.66 0 1 0 C1.66 4.29 2.32 8.58 3 13 C2.34 13 1.68 13 1 13 C1 16.96 1 20.92 1 25 C0.67 25 0.34 25 0 25 C0 16.75 0 8.5 0 0 Z " fill="#051529" transform="translate(792,251)"/>
<path d="M0 0 C0.79921875 0.02707031 1.5984375 0.05414063 2.421875 0.08203125 C3.02515625 0.11683594 3.6284375 0.15164062 4.25 0.1875 C4.25 0.8475 4.25 1.5075 4.25 2.1875 C5.57 2.5175 6.89 2.8475 8.25 3.1875 C2.64 3.1875 -2.97 3.1875 -8.75 3.1875 C-4.25 -0.1875 -4.25 -0.1875 0 0 Z " fill="#4A94D3" transform="translate(341.75,131.8125)"/>
<path d="M0 0 C4.875 0.875 4.875 0.875 6 2 C7.84891946 2.23363881 9.70488031 2.41303635 11.5625 2.5625 C13.08037109 2.68818359 13.08037109 2.68818359 14.62890625 2.81640625 C15.80259766 2.90728516 15.80259766 2.90728516 17 3 C13.11760547 5.27649498 10.48680469 5.1401255 6.12890625 4.55859375 C3.22096617 3.79559296 1.7685969 2.38376103 0 0 Z " fill="#428DCF" transform="translate(387,283)"/>
<path d="M0 0 C5.00783006 1.66927669 7.88694243 3.8268876 10.3125 8.5625 C11 11 11 11 10 14 C9.566875 12.865625 9.13375 11.73125 8.6875 10.5625 C8.130625 9.386875 7.57375 8.21125 7 7 C6.01 6.67 5.02 6.34 4 6 C3.67 5.01 3.34 4.02 3 3 C1.50014391 1.33289654 1.50014391 1.33289654 0 0 Z " fill="#3F8ACF" transform="translate(404,242)"/>
<path d="M0 0 C3 1 3 1 4.421875 3.14453125 C4.86015625 4.02496094 5.2984375 4.90539062 5.75 5.8125 C6.19859375 6.68519531 6.6471875 7.55789062 7.109375 8.45703125 C8.06982104 11.19935744 8.02018585 12.3313431 7 15 C6.01836578 13.06374902 5.03977546 11.12595461 4.0625 9.1875 C3.51722656 8.10855469 2.97195313 7.02960938 2.41015625 5.91796875 C1 3 1 3 0 0 Z " fill="#081E38" transform="translate(933,235)"/>
<path d="M0 0 C0.79921875 0.11085937 1.5984375 0.22171875 2.421875 0.3359375 C3.32679688 0.47902344 3.32679688 0.47902344 4.25 0.625 C4.25 1.285 4.25 1.945 4.25 2.625 C-0.04 2.295 -4.33 1.965 -8.75 1.625 C-4.77033543 -0.36483228 -4.07324868 -0.59900716 0 0 Z " fill="#4396DD" transform="translate(451.75,41.375)"/>
<path d="M0 0 C0.66 0 1.32 0 2 0 C1.96744792 2.01822917 1.93489583 4.03645833 1.90234375 6.0546875 C1.87350758 8.08185404 1.87350758 8.08185404 3 10 C1.68 10 0.36 10 -1 10 C-0.67 6.7 -0.34 3.4 0 0 Z " fill="#4C96D6" transform="translate(371,148)"/>
<path d="M0 0 C0.33 0 0.66 0 1 0 C1.0825 1.0725 1.165 2.145 1.25 3.25 C2.05476902 7.2738451 2.87729874 8.48169253 6 11 C3.5625 10.625 3.5625 10.625 1 10 C-0.60725635 6.78548731 -0.05748185 3.56387464 0 0 Z " fill="#092A4C" transform="translate(666,276)"/>
<path d="M0 0 C0.66 0.33 1.32 0.66 2 1 C-0.05233685 3.2477975 -1.00667261 4.0022242 -4 5 C-4.66 5.66 -5.32 6.32 -6 7 C-5.8125 5.1875 -5.8125 5.1875 -5 3 C-2.5625 1.1875 -2.5625 1.1875 0 0 Z " fill="#033A72" transform="translate(546,231)"/>
<path d="M0 0 C2.31 0 4.62 0 7 0 C7 0.33 7 0.66 7 1 C4.69 1 2.38 1 0 1 C0 0.67 0 0.34 0 0 Z " fill="#DC85BE" transform="translate(312,304)"/>
<path d="M0 0 C1.98 0 3.96 0 6 0 C6 0.33 6 0.66 6 1 C4.02 1 2.04 1 0 1 C0 0.67 0 0.34 0 0 Z " fill="#5FB0EC" transform="translate(121,284)"/>
<path d="M0 0 C2.475 0.495 2.475 0.495 5 1 C4.01 1.33 3.02 1.66 2 2 C1.34 1.34 0.68 0.68 0 0 Z " fill="#5AAEF1" transform="translate(482,66)"/>
<path d="M0 0 C1.32 0.33 2.64 0.66 4 1 C3.01 1.495 3.01 1.495 2 2 C1.34 1.34 0.68 0.68 0 0 Z " fill="#DB84BB" transform="translate(233,304)"/>
<path d="M0 0 C1.65 0 3.3 0 5 0 C5 0.33 5 0.66 5 1 C3.35 1 1.7 1 0 1 C0 0.67 0 0.34 0 0 Z " fill="#68A8DF" transform="translate(181,196)"/>
<path d="M0 0 C1.65 0 3.3 0 5 0 C5 0.33 5 0.66 5 1 C3.35 1 1.7 1 0 1 C0 0.67 0 0.34 0 0 Z " fill="#5FA9E0" transform="translate(171,196)"/>
<path d="M0 0 C0.33 1.32 0.66 2.64 1 4 C0.34 3.67 -0.32 3.34 -1 3 C-0.67 2.01 -0.34 1.02 0 0 Z " fill="#68B0ED" transform="translate(303,184)"/>
<path d="M0 0 C0.66 0 1.32 0 2 0 C2 0.66 2 1.32 2 2 C1.34 2 0.68 2 0 2 C0 1.34 0 0.68 0 0 Z " fill="#5CA5E3" transform="translate(412,298)"/>
<path d="M0 0 C0.99 0 1.98 0 3 0 C2.67 0.66 2.34 1.32 2 2 C1.34 1.34 0.68 0.68 0 0 Z " fill="#62B0ED" transform="translate(148,276)"/>
<path d="M0 0 C4 1 4 1 4 1 Z " fill="#F27DBE" transform="translate(236,243)"/>
<path d="M0 0 C0.66 0.66 1.32 1.32 2 2 C1.01 1.67 0.02 1.34 -1 1 C-0.67 0.67 -0.34 0.34 0 0 Z " fill="#5FAEED" transform="translate(130,215)"/>
<path d="M0 0 C4 1 4 1 4 1 Z " fill="#5FAFEF" transform="translate(344,154)"/>
<path d="M0 0 C0.99 0 1.98 0 3 0 C2.67 0.66 2.34 1.32 2 2 C1.34 1.34 0.68 0.68 0 0 Z " fill="#5BACEA" transform="translate(589,136)"/>
<path d="M0 0 C4 1 4 1 4 1 Z " fill="#60B0EA" transform="translate(331,132)"/>
<path d="M0 0 C0 3 0 3 0 3 Z " fill="#60ACE8" transform="translate(361,100)"/>
<path d="M0 0 C3 1 3 1 3 1 Z " fill="#64A4DE" transform="translate(396,304)"/>
<path d="M0 0 C0.99 0.495 0.99 0.495 2 1 C1.01 1.495 1.01 1.495 0 2 C0 1.34 0 0.68 0 0 Z " fill="#11426F" transform="translate(920,284)"/>
<path d="M0 0 C0.33 0.66 0.66 1.32 1 2 C0.34 1.67 -0.32 1.34 -1 1 C-0.67 0.67 -0.34 0.34 0 0 Z " fill="#999AD9" transform="translate(361,270)"/>
<path d="M0 0 C3 1 3 1 3 1 Z " fill="#EA81C2" transform="translate(282,248)"/>
<path d="" fill="#61AAE6" transform="translate(0,0)"/>
<path d="M0 0 C0.99 0.495 0.99 0.495 2 1 C1.01 1.495 1.01 1.495 0 2 C0 1.34 0 0.68 0 0 Z " fill="#60AFEE" transform="translate(101,236)"/>
<path d="M0 0 C0.99 0.495 0.99 0.495 2 1 C1.01 1.495 1.01 1.495 0 2 C0 1.34 0 0.68 0 0 Z " fill="#5EB0F2" transform="translate(100,234)"/>
<path d="M0 0 C3 1 3 1 3 1 Z " fill="#1F476E" transform="translate(851,224)"/>
<path d="M0 0 C3 1 3 1 3 1 Z " fill="#336794" transform="translate(464,196)"/>
<path d="M0 0 C0.66 0.66 1.32 1.32 2 2 C1.34 2 0.68 2 0 2 C0 1.34 0 0.68 0 0 Z " fill="#5BB0F0" transform="translate(446,66)"/>
<path d="M0 0 C3 1 3 1 3 1 Z " fill="#5BADF0" transform="translate(451,64)"/>
<path d="M0 0 C0.33 0.66 0.66 1.32 1 2 C0.34 1.67 -0.32 1.34 -1 1 C-0.67 0.67 -0.34 0.34 0 0 Z " fill="#62A9E2" transform="translate(507,44)"/>
<path d="M0 0 C3 1 3 1 3 1 Z " fill="#5CA7E3" transform="translate(469,39)"/>
<path d="" fill="#69A3DD" transform="translate(0,0)"/>
<path d="M0 0 C2 1 2 1 2 1 Z " fill="#1D4369" transform="translate(915,304)"/>
<path d="M0 0 C2 1 2 1 2 1 Z " fill="#1C4467" transform="translate(906,304)"/>
<path d="M0 0 C2 1 2 1 2 1 Z " fill="#DC83BC" transform="translate(309,304)"/>
<path d="M0 0 C2 1 2 1 2 1 Z " fill="#DA83B9" transform="translate(242,304)"/>
<path d="M0 0 C2 1 2 1 2 1 Z " fill="#63A7DF" transform="translate(130,304)"/>
<path d="" fill="#133E69" transform="translate(0,0)"/>
<path d="" fill="#E281BE" transform="translate(0,0)"/>
<path d="" fill="#7EA1D8" transform="translate(0,0)"/>
<path d="M0 0 C2 1 2 1 2 1 Z " fill="#143F6A" transform="translate(914,285)"/>
<path d="M0 0 C2 1 2 1 2 1 Z " fill="#123F6D" transform="translate(906,284)"/>
<path d="M0 0 C2 1 2 1 2 1 Z " fill="#10416E" transform="translate(848,284)"/>
<path d="M0 0 C2 1 2 1 2 1 Z " fill="#5FB1EE" transform="translate(398,284)"/>
<path d="M0 0 C2 1 2 1 2 1 Z " fill="#F582C3" transform="translate(241,284)"/>
<path d="M0 0 C2 1 2 1 2 1 Z " fill="#F17EC0" transform="translate(229,283)"/>
<path d="" fill="#143E6B" transform="translate(0,0)"/>
<path d="" fill="#8A9CD7" transform="translate(0,0)"/>
<path d="" fill="#13406E" transform="translate(0,0)"/>
<path d="" fill="#113E6C" transform="translate(0,0)"/>
<path d="" fill="#4F99D3" transform="translate(0,0)"/>
<path d="" fill="#9999D9" transform="translate(0,0)"/>
<path d="" fill="#5EADED" transform="translate(0,0)"/>
<path d="M0 0 C2 1 2 1 2 1 Z " fill="#113F6E" transform="translate(722,265)"/>
<path d="" fill="#60AAE2" transform="translate(0,0)"/>
<path d="" fill="#62AAE2" transform="translate(0,0)"/>
<path d="M0 0 C2 1 2 1 2 1 Z " fill="#164776" transform="translate(478,256)"/>
<path d="" fill="#61AAE4" transform="translate(0,0)"/>
<path d="M0 0 C2 1 2 1 2 1 Z " fill="#F17EBF" transform="translate(223,251)"/>
<path d="" fill="#5EAEF1" transform="translate(0,0)"/>
<path d="M0 0 C2 1 2 1 2 1 Z " fill="#13416E" transform="translate(659,248)"/>
<path d="" fill="#15436F" transform="translate(0,0)"/>
<path d="" fill="#1D446B" transform="translate(0,0)"/>
<path d="" fill="#1B456F" transform="translate(0,0)"/>
<path d="M0 0 C2 1 2 1 2 1 Z " fill="#71ADEA" transform="translate(377,228)"/>
<path d="" fill="#60AEED" transform="translate(0,0)"/>
<path d="" fill="#63A7DE" transform="translate(0,0)"/>
<path d="M0 0 C2 1 2 1 2 1 Z " fill="#91A5DB" transform="translate(281,207)"/>
<path d="M0 0 C2 1 2 1 2 1 Z " fill="#3A719E" transform="translate(616,196)"/>
<path d="M0 0 C2 1 2 1 2 1 Z " fill="#2E5F8D" transform="translate(478,196)"/>
<path d="" fill="#579CD2" transform="translate(0,0)"/>
<path d="M0 0 C2 1 2 1 2 1 Z " fill="#589DD4" transform="translate(645,176)"/>
<path d="" fill="#61B1F0" transform="translate(0,0)"/>
<path d="" fill="#5AA6E5" transform="translate(0,0)"/>
<path d="M0 0 C2 1 2 1 2 1 Z " fill="#5FAFEB" transform="translate(357,155)"/>
<path d="" fill="#5DA8DF" transform="translate(0,0)"/>
<path d="" fill="#65AEE9" transform="translate(0,0)"/>
<path d="M0 0 C2 1 2 1 2 1 Z " fill="#5BAEEC" transform="translate(604,139)"/>
<path d="" fill="#5BABEC" transform="translate(0,0)"/>
<path d="M0 0 C2 1 2 1 2 1 Z " fill="#5AABEA" transform="translate(585,136)"/>
<path d="M0 0 C2 1 2 1 2 1 Z " fill="#5AADEC" transform="translate(579,136)"/>
<path d="M0 0 C2 1 2 1 2 1 Z " fill="#5EB1EB" transform="translate(349,132)"/>
<path d="M0 0 C2 1 2 1 2 1 Z " fill="#65ACE9" transform="translate(357,108)"/>
<path d="" fill="#5DB1EF" transform="translate(0,0)"/>
<path d="M0 0 C2 1 2 1 2 1 Z " fill="#5DB1F1" transform="translate(441,66)"/>
<path d="M0 0 C2 1 2 1 2 1 Z " fill="#5DB1F1" transform="translate(444,65)"/>
<path d="M0 0 C2 1 2 1 2 1 Z " fill="#60AEEA" transform="translate(425,44)"/>
<path d="" fill="#6DA3D9" transform="translate(0,0)"/>
<path d="" fill="#D485BD" transform="translate(0,0)"/>
<path d="" fill="#D688BB" transform="translate(0,0)"/>
<path d="" fill="#1C436B" transform="translate(0,0)"/>
<path d="" fill="#66A6DA" transform="translate(0,0)"/>
<path d="" fill="#63A8E3" transform="translate(0,0)"/>
<path d="" fill="#1F4369" transform="translate(0,0)"/>
<path d="" fill="#1D4169" transform="translate(0,0)"/>
<path d="" fill="#1C4468" transform="translate(0,0)"/>
<path d="" fill="#1D446B" transform="translate(0,0)"/>
<path d="" fill="#1B4169" transform="translate(0,0)"/>
<path d="" fill="#69A4DD" transform="translate(0,0)"/>
<path d="" fill="#68A5E0" transform="translate(0,0)"/>
<path d="" fill="#D986BE" transform="translate(0,0)"/>
<path d="" fill="#D987BD" transform="translate(0,0)"/>
<path d="" fill="#64A8E1" transform="translate(0,0)"/>
<path d="" fill="#64A6DD" transform="translate(0,0)"/>
<path d="" fill="#1B4368" transform="translate(0,0)"/>
<path d="" fill="#DA83BC" transform="translate(0,0)"/>
<path d="" fill="#DA84BB" transform="translate(0,0)"/>
<path d="" fill="#D686BC" transform="translate(0,0)"/>
<path d="" fill="#81A0D4" transform="translate(0,0)"/>
<path d="" fill="#1D4268" transform="translate(0,0)"/>
<path d="" fill="#1E436B" transform="translate(0,0)"/>
<path d="" fill="#1B4269" transform="translate(0,0)"/>
<path d="" fill="#1B426A" transform="translate(0,0)"/>
<path d="" fill="#183F67" transform="translate(0,0)"/>
<path d="" fill="#244C75" transform="translate(0,0)"/>
<path d="" fill="#CE88B9" transform="translate(0,0)"/>
<path d="" fill="#D28CBD" transform="translate(0,0)"/>
<path d="" fill="#1E4268" transform="translate(0,0)"/>
<path d="" fill="#1A416C" transform="translate(0,0)"/>
<path d="" fill="#1B426B" transform="translate(0,0)"/>
<path d="" fill="#183E6A" transform="translate(0,0)"/>
<path d="" fill="#194169" transform="translate(0,0)"/>
<path d="" fill="#1B3F65" transform="translate(0,0)"/>
<path d="" fill="#193C64" transform="translate(0,0)"/>
<path d="" fill="#18456D" transform="translate(0,0)"/>
<path d="" fill="#0D3968" transform="translate(0,0)"/>
<path d="" fill="#123D6A" transform="translate(0,0)"/>
<path d="" fill="#DC83BB" transform="translate(0,0)"/>
<path d="" fill="#5FA8E0" transform="translate(0,0)"/>
<path d="" fill="#61A6DB" transform="translate(0,0)"/>
<path d="" fill="#3E709C" transform="translate(0,0)"/>
<path d="" fill="#7BA3DB" transform="translate(0,0)"/>
<path d="" fill="#7CA0D4" transform="translate(0,0)"/>
<path d="" fill="#E67CBC" transform="translate(0,0)"/>
<path d="" fill="#DF83BF" transform="translate(0,0)"/>
<path d="" fill="#DD82BA" transform="translate(0,0)"/>
<path d="" fill="#83A4D4" transform="translate(0,0)"/>
<path d="" fill="#62A8DB" transform="translate(0,0)"/>
<path d="" fill="#234970" transform="translate(0,0)"/>
<path d="" fill="#164067" transform="translate(0,0)"/>
<path d="" fill="#19426D" transform="translate(0,0)"/>
<path d="" fill="#143F6C" transform="translate(0,0)"/>
<path d="" fill="#7EA0DC" transform="translate(0,0)"/>
<path d="" fill="#DC84C0" transform="translate(0,0)"/>
<path d="" fill="#1B3F68" transform="translate(0,0)"/>
<path d="" fill="#123E69" transform="translate(0,0)"/>
<path d="" fill="#437AAA" transform="translate(0,0)"/>
<path d="" fill="#D68BC4" transform="translate(0,0)"/>
<path d="" fill="#153E6C" transform="translate(0,0)"/>
<path d="" fill="#E282BF" transform="translate(0,0)"/>
<path d="" fill="#16416C" transform="translate(0,0)"/>
<path d="" fill="#E47FBF" transform="translate(0,0)"/>
<path d="" fill="#143E6B" transform="translate(0,0)"/>
<path d="" fill="#C78EC6" transform="translate(0,0)"/>
<path d="" fill="#0F3E6B" transform="translate(0,0)"/>
<path d="" fill="#8DA0DA" transform="translate(0,0)"/>
<path d="" fill="#19436E" transform="translate(0,0)"/>
<path d="" fill="#113F6A" transform="translate(0,0)"/>
<path d="" fill="#16406A" transform="translate(0,0)"/>
<path d="" fill="#133F6A" transform="translate(0,0)"/>
<path d="" fill="#0F3E6D" transform="translate(0,0)"/>
<path d="" fill="#154774" transform="translate(0,0)"/>
<path d="" fill="#104170" transform="translate(0,0)"/>
<path d="" fill="#61B5ED" transform="translate(0,0)"/>
<path d="" fill="#5EAFF0" transform="translate(0,0)"/>
<path d="" fill="#60B3F2" transform="translate(0,0)"/>
<path d="" fill="#F07CBF" transform="translate(0,0)"/>
<path d="" fill="#123D69" transform="translate(0,0)"/>
<path d="" fill="#15416D" transform="translate(0,0)"/>
<path d="" fill="#15416D" transform="translate(0,0)"/>
<path d="" fill="#12406D" transform="translate(0,0)"/>
<path d="" fill="#8A9CDC" transform="translate(0,0)"/>
<path d="" fill="#62A4E0" transform="translate(0,0)"/>
<path d="" fill="#D08BC5" transform="translate(0,0)"/>
<path d="" fill="#204467" transform="translate(0,0)"/>
<path d="" fill="#5FA6DD" transform="translate(0,0)"/>
<path d="" fill="#113D6B" transform="translate(0,0)"/>
<path d="" fill="#939FD9" transform="translate(0,0)"/>
<path d="" fill="#F27CC3" transform="translate(0,0)"/>
<path d="" fill="#64AEEA" transform="translate(0,0)"/>
<path d="" fill="#5AAFF1" transform="translate(0,0)"/>
<path d="" fill="#F07EC1" transform="translate(0,0)"/>
<path d="" fill="#CD8BC5" transform="translate(0,0)"/>
<path d="" fill="#979BD7" transform="translate(0,0)"/>
<path d="" fill="#62B0ED" transform="translate(0,0)"/>
<path d="" fill="#63ADED" transform="translate(0,0)"/>
<path d="" fill="#5FA3DD" transform="translate(0,0)"/>
<path d="" fill="#8C99D7" transform="translate(0,0)"/>
<path d="" fill="#CF88C3" transform="translate(0,0)"/>
<path d="" fill="#909FDC" transform="translate(0,0)"/>
<path d="" fill="#61ADEE" transform="translate(0,0)"/>
<path d="" fill="#0F3E6E" transform="translate(0,0)"/>
<path d="" fill="#959DDA" transform="translate(0,0)"/>
<path d="" fill="#F17DC1" transform="translate(0,0)"/>
<path d="" fill="#63B0EC" transform="translate(0,0)"/>
<path d="" fill="#153F6B" transform="translate(0,0)"/>
<path d="" fill="#11406E" transform="translate(0,0)"/>
<path d="" fill="#0C4073" transform="translate(0,0)"/>
<path d="" fill="#0F3F6A" transform="translate(0,0)"/>
<path d="" fill="#66A8DE" transform="translate(0,0)"/>
<path d="" fill="#163E6A" transform="translate(0,0)"/>
<path d="" fill="#12426F" transform="translate(0,0)"/>
<path d="" fill="#12406C" transform="translate(0,0)"/>
<path d="" fill="#EE7ABE" transform="translate(0,0)"/>
<path d="" fill="#5AADED" transform="translate(0,0)"/>
<path d="" fill="#EF82C3" transform="translate(0,0)"/>
<path d="" fill="#F37BC4" transform="translate(0,0)"/>
<path d="" fill="#14406E" transform="translate(0,0)"/>
<path d="" fill="#E87EBE" transform="translate(0,0)"/>
<path d="" fill="#F479C2" transform="translate(0,0)"/>
<path d="" fill="#65AADD" transform="translate(0,0)"/>
<path d="" fill="#113E6C" transform="translate(0,0)"/>
<path d="" fill="#ED80C1" transform="translate(0,0)"/>
<path d="" fill="#F579C4" transform="translate(0,0)"/>
<path d="" fill="#0F3C68" transform="translate(0,0)"/>
<path d="" fill="#133F6E" transform="translate(0,0)"/>
<path d="" fill="#5AACE9" transform="translate(0,0)"/>
<path d="" fill="#95A3DB" transform="translate(0,0)"/>
<path d="" fill="#62A8E1" transform="translate(0,0)"/>
<path d="" fill="#F07FC1" transform="translate(0,0)"/>
<path d="" fill="#60A7E2" transform="translate(0,0)"/>
<path d="" fill="#11416C" transform="translate(0,0)"/>
<path d="" fill="#5CAEEF" transform="translate(0,0)"/>
<path d="" fill="#F480C5" transform="translate(0,0)"/>
<path d="" fill="#EF7EBE" transform="translate(0,0)"/>
<path d="" fill="#F379BF" transform="translate(0,0)"/>
<path d="" fill="#123E6B" transform="translate(0,0)"/>
<path d="" fill="#0E3F6A" transform="translate(0,0)"/>
<path d="" fill="#9D99DB" transform="translate(0,0)"/>
<path d="" fill="#103F6F" transform="translate(0,0)"/>
<path d="" fill="#5FB0EF" transform="translate(0,0)"/>
<path d="" fill="#113F6E" transform="translate(0,0)"/>
<path d="" fill="#133E6D" transform="translate(0,0)"/>
<path d="" fill="#104472" transform="translate(0,0)"/>
<path d="" fill="#154675" transform="translate(0,0)"/>
<path d="" fill="#164676" transform="translate(0,0)"/>
<path d="" fill="#5CABF0" transform="translate(0,0)"/>
<path d="" fill="#ED7ABE" transform="translate(0,0)"/>
<path d="" fill="#15426F" transform="translate(0,0)"/>
<path d="" fill="#154576" transform="translate(0,0)"/>
<path d="" fill="#164579" transform="translate(0,0)"/>
<path d="" fill="#5199D4" transform="translate(0,0)"/>
<path d="" fill="#143E6D" transform="translate(0,0)"/>
<path d="" fill="#174575" transform="translate(0,0)"/>
<path d="" fill="#F081C4" transform="translate(0,0)"/>
<path d="" fill="#F57BC4" transform="translate(0,0)"/>
<path d="" fill="#64A9E1" transform="translate(0,0)"/>
<path d="" fill="#27496A" transform="translate(0,0)"/>
<path d="" fill="#0E3F6E" transform="translate(0,0)"/>
<path d="" fill="#0D3968" transform="translate(0,0)"/>
<path d="" fill="#0E3E6B" transform="translate(0,0)"/>
<path d="" fill="#61ABE3" transform="translate(0,0)"/>
<path d="" fill="#EA7FC1" transform="translate(0,0)"/>
<path d="" fill="#134071" transform="translate(0,0)"/>
<path d="" fill="#5DADEF" transform="translate(0,0)"/>
<path d="" fill="#123F68" transform="translate(0,0)"/>
<path d="" fill="#5BACE9" transform="translate(0,0)"/>
<path d="" fill="#5CABF1" transform="translate(0,0)"/>
<path d="" fill="#63AFF4" transform="translate(0,0)"/>
<path d="" fill="#5098D6" transform="translate(0,0)"/>
<path d="" fill="#61ADF1" transform="translate(0,0)"/>
<path d="" fill="#134272" transform="translate(0,0)"/>
<path d="" fill="#124272" transform="translate(0,0)"/>
<path d="" fill="#56AAED" transform="translate(0,0)"/>
<path d="" fill="#929BDA" transform="translate(0,0)"/>
<path d="" fill="#F07DC0" transform="translate(0,0)"/>
<path d="" fill="#F479BE" transform="translate(0,0)"/>
<path d="" fill="#ED7EC2" transform="translate(0,0)"/>
<path d="" fill="#104171" transform="translate(0,0)"/>
<path d="" fill="#103E6F" transform="translate(0,0)"/>
<path d="" fill="#14446E" transform="translate(0,0)"/>
<path d="" fill="#F07EC1" transform="translate(0,0)"/>
<path d="" fill="#0E3F6F" transform="translate(0,0)"/>
<path d="" fill="#104373" transform="translate(0,0)"/>
<path d="" fill="#5FAFF0" transform="translate(0,0)"/>
<path d="" fill="#8CA0DE" transform="translate(0,0)"/>
<path d="" fill="#123E70" transform="translate(0,0)"/>
<path d="" fill="#8AA4E1" transform="translate(0,0)"/>
<path d="" fill="#15416C" transform="translate(0,0)"/>
<path d="" fill="#103F70" transform="translate(0,0)"/>
<path d="" fill="#134272" transform="translate(0,0)"/>
<path d="" fill="#114476" transform="translate(0,0)"/>
<path d="" fill="#59ABEC" transform="translate(0,0)"/>
<path d="" fill="#5DAEEF" transform="translate(0,0)"/>
<path d="" fill="#5FB0F3" transform="translate(0,0)"/>
<path d="" fill="#61B1F1" transform="translate(0,0)"/>
<path d="" fill="#164170" transform="translate(0,0)"/>
<path d="" fill="#154572" transform="translate(0,0)"/>
<path d="" fill="#154471" transform="translate(0,0)"/>
<path d="" fill="#E57FC1" transform="translate(0,0)"/>
<path d="" fill="#17406D" transform="translate(0,0)"/>
<path d="" fill="#174371" transform="translate(0,0)"/>
<path d="" fill="#85A5E4" transform="translate(0,0)"/>
<path d="" fill="#5FAFF0" transform="translate(0,0)"/>
<path d="" fill="#144373" transform="translate(0,0)"/>
<path d="" fill="#64A9DF" transform="translate(0,0)"/>
<path d="" fill="#163F6F" transform="translate(0,0)"/>
<path d="" fill="#7EA6E2" transform="translate(0,0)"/>
<path d="" fill="#60AEEE" transform="translate(0,0)"/>
<path d="" fill="#144271" transform="translate(0,0)"/>
<path d="" fill="#1A4773" transform="translate(0,0)"/>
<path d="" fill="#79A4E3" transform="translate(0,0)"/>
<path d="" fill="#DC88C6" transform="translate(0,0)"/>
<path d="" fill="#83A6E6" transform="translate(0,0)"/>
<path d="" fill="#62ABE0" transform="translate(0,0)"/>
<path d="" fill="#D98CC6" transform="translate(0,0)"/>
<path d="" fill="#66ACE4" transform="translate(0,0)"/>
<path d="" fill="#DD86C2" transform="translate(0,0)"/>
<path d="" fill="#1E446B" transform="translate(0,0)"/>
<path d="" fill="#5EB0F1" transform="translate(0,0)"/>
<path d="" fill="#65A8DF" transform="translate(0,0)"/>
<path d="" fill="#1D4C75" transform="translate(0,0)"/>
<path d="" fill="#C198CB" transform="translate(0,0)"/>
<path d="" fill="#19446F" transform="translate(0,0)"/>
<path d="" fill="#1B4E7B" transform="translate(0,0)"/>
<path d="" fill="#D48CC6" transform="translate(0,0)"/>
<path d="" fill="#C195C9" transform="translate(0,0)"/>
<path d="" fill="#5BB1F1" transform="translate(0,0)"/>
<path d="" fill="#66ABDD" transform="translate(0,0)"/>
<path d="" fill="#17436C" transform="translate(0,0)"/>
<path d="" fill="#1D456B" transform="translate(0,0)"/>
<path d="" fill="#194876" transform="translate(0,0)"/>
<path d="" fill="#194570" transform="translate(0,0)"/>
<path d="" fill="#BE95C9" transform="translate(0,0)"/>
<path d="" fill="#62AEEE" transform="translate(0,0)"/>
<path d="" fill="#164573" transform="translate(0,0)"/>
<path d="" fill="#144473" transform="translate(0,0)"/>
<path d="" fill="#BE94CA" transform="translate(0,0)"/>
<path d="" fill="#1D4A76" transform="translate(0,0)"/>
<path d="" fill="#1C4874" transform="translate(0,0)"/>
<path d="" fill="#21507D" transform="translate(0,0)"/>
<path d="" fill="#C892C7" transform="translate(0,0)"/>
<path d="" fill="#5CADEA" transform="translate(0,0)"/>
<path d="" fill="#20456C" transform="translate(0,0)"/>
<path d="" fill="#20466D" transform="translate(0,0)"/>
<path d="" fill="#235180" transform="translate(0,0)"/>
<path d="" fill="#63AEEC" transform="translate(0,0)"/>
<path d="" fill="#6CADEB" transform="translate(0,0)"/>
<path d="" fill="#1F476C" transform="translate(0,0)"/>
<path d="" fill="#21466D" transform="translate(0,0)"/>
<path d="" fill="#23537D" transform="translate(0,0)"/>
<path d="" fill="#235681" transform="translate(0,0)"/>
<path d="" fill="#61ADEC" transform="translate(0,0)"/>
<path d="" fill="#63ADED" transform="translate(0,0)"/>
<path d="" fill="#67AFED" transform="translate(0,0)"/>
<path d="" fill="#C199CC" transform="translate(0,0)"/>
<path d="" fill="#214D77" transform="translate(0,0)"/>
<path d="" fill="#25496B" transform="translate(0,0)"/>
<path d="" fill="#224D77" transform="translate(0,0)"/>
<path d="" fill="#1E4C76" transform="translate(0,0)"/>
<path d="" fill="#275680" transform="translate(0,0)"/>
<path d="" fill="#63AFEB" transform="translate(0,0)"/>
<path d="" fill="#7BA8E3" transform="translate(0,0)"/>
<path d="" fill="#63A9DF" transform="translate(0,0)"/>
<path d="" fill="#1E4A76" transform="translate(0,0)"/>
<path d="" fill="#194875" transform="translate(0,0)"/>
<path d="" fill="#5EAFF0" transform="translate(0,0)"/>
<path d="" fill="#5DAFEF" transform="translate(0,0)"/>
<path d="" fill="#134571" transform="translate(0,0)"/>
<path d="" fill="#5DACED" transform="translate(0,0)"/>
<path d="" fill="#144572" transform="translate(0,0)"/>
<path d="" fill="#5BB2F0" transform="translate(0,0)"/>
<path d="" fill="#63A5DC" transform="translate(0,0)"/>
<path d="" fill="#5CAEEF" transform="translate(0,0)"/>
<path d="" fill="#5FB0EF" transform="translate(0,0)"/>
<path d="" fill="#184B75" transform="translate(0,0)"/>
<path d="" fill="#5EADEE" transform="translate(0,0)"/>
<path d="" fill="#90A5DD" transform="translate(0,0)"/>
<path d="" fill="#4076A6" transform="translate(0,0)"/>
<path d="" fill="#93A4DB" transform="translate(0,0)"/>
<path d="" fill="#89A8E0" transform="translate(0,0)"/>
<path d="" fill="#95A6D7" transform="translate(0,0)"/>
<path d="" fill="#92A6D9" transform="translate(0,0)"/>
<path d="" fill="#62A9DE" transform="translate(0,0)"/>
<path d="" fill="#62A8DE" transform="translate(0,0)"/>
<path d="" fill="#64ABDF" transform="translate(0,0)"/>
<path d="" fill="#4378A7" transform="translate(0,0)"/>
<path d="" fill="#83A7DE" transform="translate(0,0)"/>
<path d="" fill="#74A5DE" transform="translate(0,0)"/>
<path d="" fill="#64AAE6" transform="translate(0,0)"/>
<path d="" fill="#4678AB" transform="translate(0,0)"/>
<path d="" fill="#82A9DF" transform="translate(0,0)"/>
<path d="" fill="#71A7DE" transform="translate(0,0)"/>
<path d="" fill="#62AAE6" transform="translate(0,0)"/>
<path d="" fill="#376B9A" transform="translate(0,0)"/>
<path d="" fill="#64A9E5" transform="translate(0,0)"/>
<path d="" fill="#559BD2" transform="translate(0,0)"/>
<path d="" fill="#4783B4" transform="translate(0,0)"/>
<path d="" fill="#60AAE3" transform="translate(0,0)"/>
<path d="" fill="#5FAEE7" transform="translate(0,0)"/>
<path d="" fill="#3C73A0" transform="translate(0,0)"/>
<path d="" fill="#3971A1" transform="translate(0,0)"/>
<path d="" fill="#356D98" transform="translate(0,0)"/>
<path d="" fill="#38729A" transform="translate(0,0)"/>
<path d="" fill="#3E709E" transform="translate(0,0)"/>
<path d="" fill="#2B5988" transform="translate(0,0)"/>
<path d="" fill="#2D638E" transform="translate(0,0)"/>
<path d="" fill="#30618E" transform="translate(0,0)"/>
<path d="" fill="#2F608E" transform="translate(0,0)"/>
<path d="" fill="#3A71A1" transform="translate(0,0)"/>
<path d="" fill="#59A2DD" transform="translate(0,0)"/>
<path d="" fill="#5AA4DD" transform="translate(0,0)"/>
<path d="" fill="#5CA5DD" transform="translate(0,0)"/>
<path d="" fill="#65AAE4" transform="translate(0,0)"/>
<path d="" fill="#65ABE4" transform="translate(0,0)"/>
<path d="" fill="#65AFE6" transform="translate(0,0)"/>
<path d="" fill="#72AFE8" transform="translate(0,0)"/>
<path d="" fill="#7CABE2" transform="translate(0,0)"/>
<path d="" fill="#579BD1" transform="translate(0,0)"/>
<path d="" fill="#68B0EB" transform="translate(0,0)"/>
<path d="" fill="#65B2F2" transform="translate(0,0)"/>
<path d="" fill="#6FAEE6" transform="translate(0,0)"/>
<path d="" fill="#6AAAE5" transform="translate(0,0)"/>
<path d="" fill="#61AEF2" transform="translate(0,0)"/>
<path d="" fill="#67AEE8" transform="translate(0,0)"/>
<path d="" fill="#67AEE8" transform="translate(0,0)"/>
<path d="" fill="#69B3F1" transform="translate(0,0)"/>
<path d="" fill="#67B3EE" transform="translate(0,0)"/>
<path d="" fill="#68B1E9" transform="translate(0,0)"/>
<path d="" fill="#5CABE7" transform="translate(0,0)"/>
<path d="" fill="#59A9E3" transform="translate(0,0)"/>
<path d="" fill="#62B0EE" transform="translate(0,0)"/>
<path d="" fill="#5FB0EF" transform="translate(0,0)"/>
<path d="" fill="#5EB4EF" transform="translate(0,0)"/>
<path d="" fill="#62B4F4" transform="translate(0,0)"/>
<path d="" fill="#5EB2F1" transform="translate(0,0)"/>
<path d="" fill="#62B2F2" transform="translate(0,0)"/>
<path d="" fill="#5BA9E7" transform="translate(0,0)"/>
<path d="" fill="#5AAAE5" transform="translate(0,0)"/>
<path d="" fill="#5BABE6" transform="translate(0,0)"/>
<path d="" fill="#5AABE8" transform="translate(0,0)"/>
<path d="" fill="#5CAAEA" transform="translate(0,0)"/>
<path d="" fill="#65ACE7" transform="translate(0,0)"/>
<path d="" fill="#62AFEF" transform="translate(0,0)"/>
<path d="" fill="#56A9E6" transform="translate(0,0)"/>
<path d="" fill="#62ABE1" transform="translate(0,0)"/>
<path d="" fill="#5FA4DB" transform="translate(0,0)"/>
<path d="" fill="#5FADEC" transform="translate(0,0)"/>
<path d="" fill="#5FAAE1" transform="translate(0,0)"/>
<path d="" fill="#61ACEB" transform="translate(0,0)"/>
<path d="" fill="#61A6DC" transform="translate(0,0)"/>
<path d="" fill="#60A6DA" transform="translate(0,0)"/>
<path d="" fill="#65ADEB" transform="translate(0,0)"/>
<path d="" fill="#5CAFEC" transform="translate(0,0)"/>
<path d="" fill="#5BAEF0" transform="translate(0,0)"/>
<path d="" fill="#5EB1F1" transform="translate(0,0)"/>
<path d="" fill="#5DAEEA" transform="translate(0,0)"/>
<path d="" fill="#5EACEB" transform="translate(0,0)"/>
<path d="" fill="#5DB0EE" transform="translate(0,0)"/>
<path d="" fill="#60AAE4" transform="translate(0,0)"/>
<path d="" fill="#5EA7E4" transform="translate(0,0)"/>
<path d="" fill="#66AFE9" transform="translate(0,0)"/>
<path d="" fill="#5FADE9" transform="translate(0,0)"/>
<path d="" fill="#5DACE8" transform="translate(0,0)"/>
<path d="" fill="#5CABE5" transform="translate(0,0)"/>
<path d="" fill="#62AFF0" transform="translate(0,0)"/>
<path d="" fill="#60B0ED" transform="translate(0,0)"/>
<path d="" fill="#60AFF0" transform="translate(0,0)"/>
<path d="" fill="#5FABE8" transform="translate(0,0)"/>
<path d="" fill="#61B0EB" transform="translate(0,0)"/>
<path d="" fill="#5DADEA" transform="translate(0,0)"/>
<path d="" fill="#61ADE4" transform="translate(0,0)"/>
<path d="" fill="#63ACE4" transform="translate(0,0)"/>
<path d="" fill="#5DADE6" transform="translate(0,0)"/>
<path d="" fill="#5EB1EE" transform="translate(0,0)"/>
<path d="" fill="#5FB0EA" transform="translate(0,0)"/>
<path d="" fill="#62ADE8" transform="translate(0,0)"/>
<path d="" fill="#5BB0F0" transform="translate(0,0)"/>
<path d="" fill="#65B1E9" transform="translate(0,0)"/>
<path d="" fill="#65B0EB" transform="translate(0,0)"/>
<path d="" fill="#63AEE9" transform="translate(0,0)"/>
<path d="" fill="#61ADE8" transform="translate(0,0)"/>
<path d="" fill="#63AAE3" transform="translate(0,0)"/>
<path d="" fill="#5BAFEC" transform="translate(0,0)"/>
<path d="" fill="#5CACED" transform="translate(0,0)"/>
<path d="" fill="#5FB0EC" transform="translate(0,0)"/>
<path d="" fill="#5DAEEF" transform="translate(0,0)"/>
<path d="" fill="#5CB0EE" transform="translate(0,0)"/>
<path d="" fill="#5FACEA" transform="translate(0,0)"/>
<path d="" fill="#61ACEA" transform="translate(0,0)"/>
<path d="" fill="#64ACE6" transform="translate(0,0)"/>
<path d="" fill="#5CAEEB" transform="translate(0,0)"/>
<path d="" fill="#63AEEB" transform="translate(0,0)"/>
<path d="" fill="#60ADE8" transform="translate(0,0)"/>
<path d="" fill="#61AFEF" transform="translate(0,0)"/>
<path d="" fill="#5EAEE6" transform="translate(0,0)"/>
<path d="" fill="#60AAE3" transform="translate(0,0)"/>
<path d="" fill="#5AACEA" transform="translate(0,0)"/>
<path d="" fill="#59ACED" transform="translate(0,0)"/>
<path d="" fill="#60ACE7" transform="translate(0,0)"/>
<path d="" fill="#60B1F2" transform="translate(0,0)"/>
<path d="" fill="#5DADED" transform="translate(0,0)"/>
<path d="" fill="#5DB0F1" transform="translate(0,0)"/>
<path d="" fill="#5BAEED" transform="translate(0,0)"/>
<path d="" fill="#61ABE7" transform="translate(0,0)"/>
<path d="" fill="#62B0EF" transform="translate(0,0)"/>
<path d="" fill="#5FADE7" transform="translate(0,0)"/>
<path d="" fill="#5BB6F5" transform="translate(0,0)"/>
<path d="" fill="#5DB0F0" transform="translate(0,0)"/>
<path d="" fill="#57ACEE" transform="translate(0,0)"/>
<path d="" fill="#59AFF3" transform="translate(0,0)"/>
<path d="" fill="#5BAFEE" transform="translate(0,0)"/>
<path d="" fill="#5EAEF0" transform="translate(0,0)"/>
<path d="" fill="#5FB1EF" transform="translate(0,0)"/>
<path d="" fill="#64ABE4" transform="translate(0,0)"/>
<path d="" fill="#64ACE5" transform="translate(0,0)"/>
<path d="" fill="#63ABE4" transform="translate(0,0)"/>
<path d="" fill="#60ACE4" transform="translate(0,0)"/>
<path d="" fill="#62ADE7" transform="translate(0,0)"/>
<path d="" fill="#61A8DF" transform="translate(0,0)"/>
<path d="" fill="#5CACE4" transform="translate(0,0)"/>
<path d="" fill="#60AAE9" transform="translate(0,0)"/>
<path d="" fill="#65ACE5" transform="translate(0,0)"/>
<path d="" fill="#62ABE0" transform="translate(0,0)"/>
<path d="" fill="#5CADE6" transform="translate(0,0)"/>
<path d="" fill="#60ABE6" transform="translate(0,0)"/>
<path d="" fill="#64ABE5" transform="translate(0,0)"/>
<path d="" fill="#5FACE7" transform="translate(0,0)"/>
<path d="" fill="#5EAAE8" transform="translate(0,0)"/>
<path d="" fill="#60A9E4" transform="translate(0,0)"/>
<path d="" fill="#5EABE6" transform="translate(0,0)"/>
<path d="" fill="#61ABE3" transform="translate(0,0)"/>
</svg>
